<?xml version="1.0" encoding="utf-8" standalone="no"?>
<!DOCTYPE svg PUBLIC "-//W3C//DTD SVG 1.1//EN"
  "http://www.w3.org/Graphics/SVG/1.1/DTD/svg11.dtd">
<svg xmlns:xlink="http://www.w3.org/1999/xlink" width="648pt" height="648pt" viewBox="0 0 648 648" xmlns="http://www.w3.org/2000/svg" version="1.1">
 <metadata>
  <rdf:RDF xmlns:dc="http://purl.org/dc/elements/1.1/" xmlns:cc="http://creativecommons.org/ns#" xmlns:rdf="http://www.w3.org/1999/02/22-rdf-syntax-ns#">
   <cc:Work>
    <dc:type rdf:resource="http://purl.org/dc/dcmitype/StillImage"/>
    <dc:date>2025-02-06T18:32:33.533738</dc:date>
    <dc:format>image/svg+xml</dc:format>
    <dc:creator>
     <cc:Agent>
      <dc:title>Matplotlib v3.10.0, https://matplotlib.org/</dc:title>
     </cc:Agent>
    </dc:creator>
   </cc:Work>
  </rdf:RDF>
 </metadata>
 <defs>
  <style type="text/css">*{stroke-linejoin: round; stroke-linecap: butt}</style>
 </defs>
 <g id="figure_1">
  <g id="patch_1">
   <path d="M 0 648 
L 648 648 
L 648 0 
L 0 0 
z
" style="fill: #ffffff"/>
  </g>
  <g id="axes_1">
   <g id="patch_2">
    <path d="M 120.71 549.007329 
L 635.004658 549.007329 
L 635.004658 34.712671 
L 120.71 34.712671 
z
" style="fill: #ffffff"/>
   </g>
   <g id="PathCollection_1">
    <defs>
     <path id="m142f0d81ea" d="M 0 8.660254 
C 2.296726 8.660254 4.499694 7.747755 6.123724 6.123724 
C 7.747755 4.499694 8.660254 2.296726 8.660254 0 
C 8.660254 -2.296726 7.747755 -4.499694 6.123724 -6.123724 
C 4.499694 -7.747755 2.296726 -8.660254 0 -8.660254 
C -2.296726 -8.660254 -4.499694 -7.747755 -6.123724 -6.123724 
C -7.747755 -4.499694 -8.660254 -2.296726 -8.660254 0 
C -8.660254 2.296726 -7.747755 4.499694 -6.123724 6.123724 
C -4.499694 7.747755 -2.296726 8.660254 0 8.660254 
z
" style="stroke: #000000; stroke-opacity: 0.8"/>
    </defs>
    <g clip-path="url(#p55700b482b)">
     <use xlink:href="#m142f0d81ea" x="220.780052" y="344.082892" style="fill: #516f84; fill-opacity: 0.8; stroke: #000000; stroke-opacity: 0.8"/>
     <use xlink:href="#m142f0d81ea" x="291.642335" y="245.550453" style="fill: #516f84; fill-opacity: 0.8; stroke: #000000; stroke-opacity: 0.8"/>
     <use xlink:href="#m142f0d81ea" x="205.074675" y="397.393147" style="fill: #516f84; fill-opacity: 0.8; stroke: #000000; stroke-opacity: 0.8"/>
     <use xlink:href="#m142f0d81ea" x="165.717189" y="376.096643" style="fill: #516f84; fill-opacity: 0.8; stroke: #000000; stroke-opacity: 0.8"/>
     <use xlink:href="#m142f0d81ea" x="155.37233" y="473.214221" style="fill: #516f84; fill-opacity: 0.8; stroke: #000000; stroke-opacity: 0.8"/>
     <use xlink:href="#m142f0d81ea" x="152.127807" y="525.630299" style="fill: #516f84; fill-opacity: 0.8; stroke: #000000; stroke-opacity: 0.8"/>
     <use xlink:href="#m142f0d81ea" x="611.627628" y="304.450236" style="fill: #516f84; fill-opacity: 0.8; stroke: #000000; stroke-opacity: 0.8"/>
     <use xlink:href="#m142f0d81ea" x="144.08703" y="354.294174" style="fill: #516f84; fill-opacity: 0.8; stroke: #000000; stroke-opacity: 0.8"/>
     <use xlink:href="#m142f0d81ea" x="144.08703" y="149.917651" style="fill: #516f84; fill-opacity: 0.8; stroke: #000000; stroke-opacity: 0.8"/>
     <use xlink:href="#m142f0d81ea" x="144.08703" y="310.757313" style="fill: #516f84; fill-opacity: 0.8; stroke: #000000; stroke-opacity: 0.8"/>
     <use xlink:href="#m142f0d81ea" x="188.240768" y="283.74433" style="fill: #516f84; fill-opacity: 0.8; stroke: #000000; stroke-opacity: 0.8"/>
     <use xlink:href="#m142f0d81ea" x="595.499053" y="274.528417" style="fill: #516f84; fill-opacity: 0.8; stroke: #000000; stroke-opacity: 0.8"/>
     <use xlink:href="#m142f0d81ea" x="144.08703" y="279.012182" style="fill: #516f84; fill-opacity: 0.8; stroke: #000000; stroke-opacity: 0.8"/>
     <use xlink:href="#m142f0d81ea" x="144.08703" y="370.773897" style="fill: #516f84; fill-opacity: 0.8; stroke: #000000; stroke-opacity: 0.8"/>
     <use xlink:href="#m142f0d81ea" x="144.08703" y="268.202942" style="fill: #516f84; fill-opacity: 0.8; stroke: #000000; stroke-opacity: 0.8"/>
     <use xlink:href="#m142f0d81ea" x="144.08703" y="376.483016" style="fill: #516f84; fill-opacity: 0.8; stroke: #000000; stroke-opacity: 0.8"/>
     <use xlink:href="#m142f0d81ea" x="498.103899" y="312.473912" style="fill: #516f84; fill-opacity: 0.8; stroke: #000000; stroke-opacity: 0.8"/>
     <use xlink:href="#m142f0d81ea" x="144.08703" y="258.933673" style="fill: #516f84; fill-opacity: 0.8; stroke: #000000; stroke-opacity: 0.8"/>
     <use xlink:href="#m142f0d81ea" x="373.792599" y="325.573792" style="fill: #516f84; fill-opacity: 0.8; stroke: #000000; stroke-opacity: 0.8"/>
     <use xlink:href="#m142f0d81ea" x="144.08703" y="241.221237" style="fill: #516f84; fill-opacity: 0.8; stroke: #000000; stroke-opacity: 0.8"/>
     <use xlink:href="#m142f0d81ea" x="144.08703" y="362.071308" style="fill: #516f84; fill-opacity: 0.8; stroke: #000000; stroke-opacity: 0.8"/>
     <use xlink:href="#m142f0d81ea" x="152.194286" y="327.978503" style="fill: #516f84; fill-opacity: 0.8; stroke: #000000; stroke-opacity: 0.8"/>
     <use xlink:href="#m142f0d81ea" x="595.390949" y="310.897143" style="fill: #516f84; fill-opacity: 0.8; stroke: #000000; stroke-opacity: 0.8"/>
     <use xlink:href="#m142f0d81ea" x="144.08703" y="58.089701" style="fill: #516f84; fill-opacity: 0.8; stroke: #000000; stroke-opacity: 0.8"/>
     <use xlink:href="#m142f0d81ea" x="230.564407" y="207.089795" style="fill: #516f84; fill-opacity: 0.8; stroke: #000000; stroke-opacity: 0.8"/>
     <use xlink:href="#m142f0d81ea" x="144.08703" y="494.786706" style="fill: #516f84; fill-opacity: 0.8; stroke: #000000; stroke-opacity: 0.8"/>
     <use xlink:href="#m142f0d81ea" x="146.78945" y="278.863153" style="fill: #516f84; fill-opacity: 0.8; stroke: #000000; stroke-opacity: 0.8"/>
     <use xlink:href="#m142f0d81ea" x="171.111215" y="464.195175" style="fill: #516f84; fill-opacity: 0.8; stroke: #000000; stroke-opacity: 0.8"/>
     <use xlink:href="#m142f0d81ea" x="144.08703" y="314.512489" style="fill: #516f84; fill-opacity: 0.8; stroke: #000000; stroke-opacity: 0.8"/>
     <use xlink:href="#m142f0d81ea" x="162.121067" y="412.765267" style="fill: #516f84; fill-opacity: 0.8; stroke: #000000; stroke-opacity: 0.8"/>
     <use xlink:href="#m142f0d81ea" x="144.08703" y="123.335198" style="fill: #516f84; fill-opacity: 0.8; stroke: #000000; stroke-opacity: 0.8"/>
     <use xlink:href="#m142f0d81ea" x="522.133925" y="199.386256" style="fill: #516f84; fill-opacity: 0.8; stroke: #000000; stroke-opacity: 0.8"/>
     <use xlink:href="#m142f0d81ea" x="590.262485" y="413.166359" style="fill: #516f84; fill-opacity: 0.8; stroke: #000000; stroke-opacity: 0.8"/>
     <use xlink:href="#m142f0d81ea" x="554.194429" y="112.111986" style="fill: #516f84; fill-opacity: 0.8; stroke: #000000; stroke-opacity: 0.8"/>
     <use xlink:href="#m142f0d81ea" x="144.08703" y="310.597244" style="fill: #516f84; fill-opacity: 0.8; stroke: #000000; stroke-opacity: 0.8"/>
     <use xlink:href="#m142f0d81ea" x="144.08703" y="373.822563" style="fill: #516f84; fill-opacity: 0.8; stroke: #000000; stroke-opacity: 0.8"/>
     <use xlink:href="#m142f0d81ea" x="149.43045" y="169.613467" style="fill: #516f84; fill-opacity: 0.8; stroke: #000000; stroke-opacity: 0.8"/>
     <use xlink:href="#m142f0d81ea" x="144.08703" y="373.020379" style="fill: #516f84; fill-opacity: 0.8; stroke: #000000; stroke-opacity: 0.8"/>
     <use xlink:href="#m142f0d81ea" x="152.102156" y="234.570104" style="fill: #516f84; fill-opacity: 0.8; stroke: #000000; stroke-opacity: 0.8"/>
     <use xlink:href="#m142f0d81ea" x="144.08703" y="283.219967" style="fill: #516f84; fill-opacity: 0.8; stroke: #000000; stroke-opacity: 0.8"/>
    </g>
   </g>
   <g id="PathCollection_2">
    <defs>
     <path id="mf97575f599" d="M 0 0 
C 0 0 0 0 0 0 
C 0 0 0 0 0 0 
C 0 0 0 0 0 0 
C 0 0 0 0 0 0 
C 0 0 0 0 0 0 
C 0 0 0 0 0 0 
C 0 0 0 0 0 0 
C 0 0 0 0 0 0 
z
" style="stroke: #a9a9a9; stroke-opacity: 0.8"/>
    </defs>
    <g clip-path="url(#p55700b482b)">
     <use xlink:href="#mf97575f599" x="220.780052" y="344.082892" style="fill: #a9a9a9; fill-opacity: 0.8; stroke: #a9a9a9; stroke-opacity: 0.8"/>
     <use xlink:href="#mf97575f599" x="291.642335" y="245.550453" style="fill: #a9a9a9; fill-opacity: 0.8; stroke: #a9a9a9; stroke-opacity: 0.8"/>
     <use xlink:href="#mf97575f599" x="205.074675" y="397.393147" style="fill: #a9a9a9; fill-opacity: 0.8; stroke: #a9a9a9; stroke-opacity: 0.8"/>
     <use xlink:href="#mf97575f599" x="165.717189" y="376.096643" style="fill: #a9a9a9; fill-opacity: 0.8; stroke: #a9a9a9; stroke-opacity: 0.8"/>
     <use xlink:href="#mf97575f599" x="155.37233" y="473.214221" style="fill: #a9a9a9; fill-opacity: 0.8; stroke: #a9a9a9; stroke-opacity: 0.8"/>
     <use xlink:href="#mf97575f599" x="152.127807" y="525.630299" style="fill: #a9a9a9; fill-opacity: 0.8; stroke: #a9a9a9; stroke-opacity: 0.8"/>
     <use xlink:href="#mf97575f599" x="611.627628" y="304.450236" style="fill: #a9a9a9; fill-opacity: 0.8; stroke: #a9a9a9; stroke-opacity: 0.8"/>
     <use xlink:href="#mf97575f599" x="144.08703" y="354.294174" style="fill: #a9a9a9; fill-opacity: 0.8; stroke: #a9a9a9; stroke-opacity: 0.8"/>
     <use xlink:href="#mf97575f599" x="144.08703" y="149.917651" style="fill: #a9a9a9; fill-opacity: 0.8; stroke: #a9a9a9; stroke-opacity: 0.8"/>
     <use xlink:href="#mf97575f599" x="144.08703" y="310.757313" style="fill: #a9a9a9; fill-opacity: 0.8; stroke: #a9a9a9; stroke-opacity: 0.8"/>
     <use xlink:href="#mf97575f599" x="188.240768" y="283.74433" style="fill: #a9a9a9; fill-opacity: 0.8; stroke: #a9a9a9; stroke-opacity: 0.8"/>
     <use xlink:href="#mf97575f599" x="595.499053" y="274.528417" style="fill: #a9a9a9; fill-opacity: 0.8; stroke: #a9a9a9; stroke-opacity: 0.8"/>
     <use xlink:href="#mf97575f599" x="144.08703" y="279.012182" style="fill: #a9a9a9; fill-opacity: 0.8; stroke: #a9a9a9; stroke-opacity: 0.8"/>
     <use xlink:href="#mf97575f599" x="144.08703" y="370.773897" style="fill: #a9a9a9; fill-opacity: 0.8; stroke: #a9a9a9; stroke-opacity: 0.8"/>
     <use xlink:href="#mf97575f599" x="144.08703" y="268.202942" style="fill: #a9a9a9; fill-opacity: 0.8; stroke: #a9a9a9; stroke-opacity: 0.8"/>
     <use xlink:href="#mf97575f599" x="144.08703" y="376.483016" style="fill: #a9a9a9; fill-opacity: 0.8; stroke: #a9a9a9; stroke-opacity: 0.8"/>
     <use xlink:href="#mf97575f599" x="498.103899" y="312.473912" style="fill: #a9a9a9; fill-opacity: 0.8; stroke: #a9a9a9; stroke-opacity: 0.8"/>
     <use xlink:href="#mf97575f599" x="144.08703" y="258.933673" style="fill: #a9a9a9; fill-opacity: 0.8; stroke: #a9a9a9; stroke-opacity: 0.8"/>
     <use xlink:href="#mf97575f599" x="373.792599" y="325.573792" style="fill: #a9a9a9; fill-opacity: 0.8; stroke: #a9a9a9; stroke-opacity: 0.8"/>
     <use xlink:href="#mf97575f599" x="144.08703" y="241.221237" style="fill: #a9a9a9; fill-opacity: 0.8; stroke: #a9a9a9; stroke-opacity: 0.8"/>
     <use xlink:href="#mf97575f599" x="144.08703" y="362.071308" style="fill: #a9a9a9; fill-opacity: 0.8; stroke: #a9a9a9; stroke-opacity: 0.8"/>
     <use xlink:href="#mf97575f599" x="152.194286" y="327.978503" style="fill: #a9a9a9; fill-opacity: 0.8; stroke: #a9a9a9; stroke-opacity: 0.8"/>
     <use xlink:href="#mf97575f599" x="595.390949" y="310.897143" style="fill: #a9a9a9; fill-opacity: 0.8; stroke: #a9a9a9; stroke-opacity: 0.8"/>
     <use xlink:href="#mf97575f599" x="144.08703" y="58.089701" style="fill: #a9a9a9; fill-opacity: 0.8; stroke: #a9a9a9; stroke-opacity: 0.8"/>
     <use xlink:href="#mf97575f599" x="230.564407" y="207.089795" style="fill: #a9a9a9; fill-opacity: 0.8; stroke: #a9a9a9; stroke-opacity: 0.8"/>
     <use xlink:href="#mf97575f599" x="144.08703" y="494.786706" style="fill: #a9a9a9; fill-opacity: 0.8; stroke: #a9a9a9; stroke-opacity: 0.8"/>
     <use xlink:href="#mf97575f599" x="146.78945" y="278.863153" style="fill: #a9a9a9; fill-opacity: 0.8; stroke: #a9a9a9; stroke-opacity: 0.8"/>
     <use xlink:href="#mf97575f599" x="171.111215" y="464.195175" style="fill: #a9a9a9; fill-opacity: 0.8; stroke: #a9a9a9; stroke-opacity: 0.8"/>
     <use xlink:href="#mf97575f599" x="144.08703" y="314.512489" style="fill: #a9a9a9; fill-opacity: 0.8; stroke: #a9a9a9; stroke-opacity: 0.8"/>
     <use xlink:href="#mf97575f599" x="162.121067" y="412.765267" style="fill: #a9a9a9; fill-opacity: 0.8; stroke: #a9a9a9; stroke-opacity: 0.8"/>
     <use xlink:href="#mf97575f599" x="144.08703" y="123.335198" style="fill: #a9a9a9; fill-opacity: 0.8; stroke: #a9a9a9; stroke-opacity: 0.8"/>
     <use xlink:href="#mf97575f599" x="522.133925" y="199.386256" style="fill: #a9a9a9; fill-opacity: 0.8; stroke: #a9a9a9; stroke-opacity: 0.8"/>
     <use xlink:href="#mf97575f599" x="590.262485" y="413.166359" style="fill: #a9a9a9; fill-opacity: 0.8; stroke: #a9a9a9; stroke-opacity: 0.8"/>
     <use xlink:href="#mf97575f599" x="554.194429" y="112.111986" style="fill: #a9a9a9; fill-opacity: 0.8; stroke: #a9a9a9; stroke-opacity: 0.8"/>
     <use xlink:href="#mf97575f599" x="144.08703" y="310.597244" style="fill: #a9a9a9; fill-opacity: 0.8; stroke: #a9a9a9; stroke-opacity: 0.8"/>
     <use xlink:href="#mf97575f599" x="144.08703" y="373.822563" style="fill: #a9a9a9; fill-opacity: 0.8; stroke: #a9a9a9; stroke-opacity: 0.8"/>
     <use xlink:href="#mf97575f599" x="149.43045" y="169.613467" style="fill: #a9a9a9; fill-opacity: 0.8; stroke: #a9a9a9; stroke-opacity: 0.8"/>
     <use xlink:href="#mf97575f599" x="144.08703" y="373.020379" style="fill: #a9a9a9; fill-opacity: 0.8; stroke: #a9a9a9; stroke-opacity: 0.8"/>
     <use xlink:href="#mf97575f599" x="152.102156" y="234.570104" style="fill: #a9a9a9; fill-opacity: 0.8; stroke: #a9a9a9; stroke-opacity: 0.8"/>
     <use xlink:href="#mf97575f599" x="144.08703" y="283.219967" style="fill: #a9a9a9; fill-opacity: 0.8; stroke: #a9a9a9; stroke-opacity: 0.8"/>
    </g>
   </g>
   <g id="FillBetweenPolyCollection_1">
    <path d="M 144.08703 301.775322 
L 144.08703 330.427018 
L 148.809662 329.621723 
L 153.532295 328.70937 
L 158.254927 328.052801 
L 162.977559 327.074628 
L 167.700191 326.406771 
L 172.422824 326.327644 
L 177.145456 325.537883 
L 181.868088 324.947232 
L 186.590721 324.308727 
L 191.313353 323.982331 
L 196.035985 323.56246 
L 200.758618 323.056486 
L 205.48125 322.892821 
L 210.203882 322.867722 
L 214.926514 322.517972 
L 219.649147 322.006603 
L 224.371779 321.648895 
L 229.094411 321.613852 
L 233.817044 321.445212 
L 238.539676 321.233023 
L 243.262308 321.103274 
L 247.984941 321.250498 
L 252.707573 320.820439 
L 257.430205 320.638602 
L 262.152838 320.469473 
L 266.87547 320.187017 
L 271.598102 320.27358 
L 276.320734 320.420875 
L 281.043367 320.289862 
L 285.765999 320.074038 
L 290.488631 320.257045 
L 295.211264 320.273702 
L 299.933896 320.602807 
L 304.656528 320.055962 
L 309.379161 319.764571 
L 314.101793 319.341742 
L 318.824425 318.957496 
L 323.547058 318.53765 
L 328.26969 318.307938 
L 332.992322 318.049648 
L 337.714954 317.891273 
L 342.437587 317.820435 
L 347.160219 317.906761 
L 351.882851 317.943234 
L 356.605484 317.847252 
L 361.328116 317.690841 
L 366.050748 317.446351 
L 370.773381 317.384978 
L 375.496013 316.974557 
L 380.218645 316.414493 
L 384.941277 315.794416 
L 389.66391 315.556844 
L 394.386542 315.120258 
L 399.109174 314.83363 
L 403.831807 313.933817 
L 408.554439 313.149357 
L 413.277071 312.320866 
L 417.999704 312.107581 
L 422.722336 311.771759 
L 427.444968 311.543827 
L 432.167601 311.404 
L 436.890233 310.979373 
L 441.612865 310.511936 
L 446.335497 310.458837 
L 451.05813 309.382401 
L 455.780762 309.120648 
L 460.503394 309.409165 
L 465.226027 309.321761 
L 469.948659 308.616619 
L 474.671291 308.225054 
L 479.393924 307.696115 
L 484.116556 307.956039 
L 488.839188 307.351897 
L 493.561821 306.561641 
L 498.284453 306.493446 
L 503.007085 306.206236 
L 507.729717 305.616596 
L 512.45235 305.250366 
L 517.174982 304.958615 
L 521.897614 304.727122 
L 526.620247 304.655574 
L 531.342879 304.630498 
L 536.065511 304.360378 
L 540.788144 304.209567 
L 545.510776 304.296655 
L 550.233408 304.443341 
L 554.95604 304.948131 
L 559.678673 304.948543 
L 564.401305 305.31715 
L 569.123937 305.336472 
L 573.84657 305.515708 
L 578.569202 305.795577 
L 583.291834 305.851207 
L 588.014467 305.681279 
L 592.737099 305.887016 
L 597.459731 307.114594 
L 602.182364 307.3816 
L 606.904996 308.517756 
L 611.627628 309.351836 
L 611.627628 255.538173 
L 611.627628 255.538173 
L 606.904996 256.153203 
L 602.182364 256.257721 
L 597.459731 256.766795 
L 592.737099 257.481023 
L 588.014467 257.519728 
L 583.291834 257.888019 
L 578.569202 258.829797 
L 573.84657 259.84914 
L 569.123937 260.029429 
L 564.401305 260.197536 
L 559.678673 260.659931 
L 554.95604 260.200536 
L 550.233408 260.136751 
L 545.510776 260.145037 
L 540.788144 260.682907 
L 536.065511 260.539364 
L 531.342879 260.658445 
L 526.620247 260.67529 
L 521.897614 260.70687 
L 517.174982 260.805416 
L 512.45235 260.767375 
L 507.729717 261.030019 
L 503.007085 260.809577 
L 498.284453 260.68962 
L 493.561821 260.939846 
L 488.839188 261.22761 
L 484.116556 261.448388 
L 479.393924 261.476002 
L 474.671291 261.665832 
L 469.948659 262.028956 
L 465.226027 261.931882 
L 460.503394 262.569553 
L 455.780762 262.701495 
L 451.05813 262.929812 
L 446.335497 263.225555 
L 441.612865 263.828402 
L 436.890233 263.876309 
L 432.167601 264.067365 
L 427.444968 263.960106 
L 422.722336 264.193792 
L 417.999704 264.132484 
L 413.277071 264.198479 
L 408.554439 264.485976 
L 403.831807 264.816907 
L 399.109174 264.968636 
L 394.386542 265.516064 
L 389.66391 265.838798 
L 384.941277 266.231471 
L 380.218645 266.838898 
L 375.496013 266.974533 
L 370.773381 267.416974 
L 366.050748 267.733322 
L 361.328116 267.940689 
L 356.605484 268.434803 
L 351.882851 268.870562 
L 347.160219 269.345727 
L 342.437587 269.691107 
L 337.714954 270.143497 
L 332.992322 270.581079 
L 328.26969 270.831089 
L 323.547058 271.407334 
L 318.824425 272.280614 
L 314.101793 272.908994 
L 309.379161 273.247301 
L 304.656528 273.781433 
L 299.933896 274.888976 
L 295.211264 275.737243 
L 290.488631 276.49374 
L 285.765999 277.131448 
L 281.043367 277.985511 
L 276.320734 278.801625 
L 271.598102 279.893921 
L 266.87547 281.023199 
L 262.152838 281.787278 
L 257.430205 282.532525 
L 252.707573 283.444147 
L 247.984941 284.484436 
L 243.262308 285.605867 
L 238.539676 286.485817 
L 233.817044 287.604736 
L 229.094411 288.619796 
L 224.371779 289.543425 
L 219.649147 290.26903 
L 214.926514 291.72638 
L 210.203882 292.664661 
L 205.48125 293.866728 
L 200.758618 295.02001 
L 196.035985 295.73921 
L 191.313353 296.768797 
L 186.590721 297.943377 
L 181.868088 298.850713 
L 177.145456 299.570405 
L 172.422824 299.704277 
L 167.700191 300.634231 
L 162.977559 301.218343 
L 158.254927 301.97029 
L 153.532295 301.521273 
L 148.809662 301.788275 
L 144.08703 301.775322 
z
" clip-path="url(#p55700b482b)" style="fill: #a9a9a9; fill-opacity: 0.15"/>
   </g>
   <g id="matplotlib.axis_1">
    <g id="xtick_1">
     <g id="line2d_1">
      <defs>
       <path id="m3cce3e4caa" d="M 0 0 
L 0 3.5 
" style="stroke: #000000; stroke-width: 0.8"/>
      </defs>
      <g>
       <use xlink:href="#m3cce3e4caa" x="144.08703" y="549.007329" style="stroke: #000000; stroke-width: 0.8"/>
      </g>
     </g>
     <g id="text_1">
      <!-- 0 -->
      <g transform="translate(136.133905 575.003423) scale(0.25 -0.25)">
       <defs>
        <path id="DejaVuSans-30" d="M 2034 4250 
Q 1547 4250 1301 3770 
Q 1056 3291 1056 2328 
Q 1056 1369 1301 889 
Q 1547 409 2034 409 
Q 2525 409 2770 889 
Q 3016 1369 3016 2328 
Q 3016 3291 2770 3770 
Q 2525 4250 2034 4250 
z
M 2034 4750 
Q 2819 4750 3233 4129 
Q 3647 3509 3647 2328 
Q 3647 1150 3233 529 
Q 2819 -91 2034 -91 
Q 1250 -91 836 529 
Q 422 1150 422 2328 
Q 422 3509 836 4129 
Q 1250 4750 2034 4750 
z
" transform="scale(0.015625)"/>
       </defs>
       <use xlink:href="#DejaVuSans-30"/>
      </g>
     </g>
    </g>
    <g id="xtick_2">
     <g id="line2d_2">
      <g>
       <use xlink:href="#m3cce3e4caa" x="238.131201" y="549.007329" style="stroke: #000000; stroke-width: 0.8"/>
      </g>
     </g>
     <g id="text_2">
      <!-- 20 -->
      <g transform="translate(222.224951 575.003423) scale(0.25 -0.25)">
       <defs>
        <path id="DejaVuSans-32" d="M 1228 531 
L 3431 531 
L 3431 0 
L 469 0 
L 469 531 
Q 828 903 1448 1529 
Q 2069 2156 2228 2338 
Q 2531 2678 2651 2914 
Q 2772 3150 2772 3378 
Q 2772 3750 2511 3984 
Q 2250 4219 1831 4219 
Q 1534 4219 1204 4116 
Q 875 4013 500 3803 
L 500 4441 
Q 881 4594 1212 4672 
Q 1544 4750 1819 4750 
Q 2544 4750 2975 4387 
Q 3406 4025 3406 3419 
Q 3406 3131 3298 2873 
Q 3191 2616 2906 2266 
Q 2828 2175 2409 1742 
Q 1991 1309 1228 531 
z
" transform="scale(0.015625)"/>
       </defs>
       <use xlink:href="#DejaVuSans-32"/>
       <use xlink:href="#DejaVuSans-30" transform="translate(63.623047 0)"/>
      </g>
     </g>
    </g>
    <g id="xtick_3">
     <g id="line2d_3">
      <g>
       <use xlink:href="#m3cce3e4caa" x="332.175373" y="549.007329" style="stroke: #000000; stroke-width: 0.8"/>
      </g>
     </g>
     <g id="text_3">
      <!-- 40 -->
      <g transform="translate(316.269123 575.003423) scale(0.25 -0.25)">
       <defs>
        <path id="DejaVuSans-34" d="M 2419 4116 
L 825 1625 
L 2419 1625 
L 2419 4116 
z
M 2253 4666 
L 3047 4666 
L 3047 1625 
L 3713 1625 
L 3713 1100 
L 3047 1100 
L 3047 0 
L 2419 0 
L 2419 1100 
L 313 1100 
L 313 1709 
L 2253 4666 
z
" transform="scale(0.015625)"/>
       </defs>
       <use xlink:href="#DejaVuSans-34"/>
       <use xlink:href="#DejaVuSans-30" transform="translate(63.623047 0)"/>
      </g>
     </g>
    </g>
    <g id="xtick_4">
     <g id="line2d_4">
      <g>
       <use xlink:href="#m3cce3e4caa" x="426.219544" y="549.007329" style="stroke: #000000; stroke-width: 0.8"/>
      </g>
     </g>
     <g id="text_4">
      <!-- 60 -->
      <g transform="translate(410.313294 575.003423) scale(0.25 -0.25)">
       <defs>
        <path id="DejaVuSans-36" d="M 2113 2584 
Q 1688 2584 1439 2293 
Q 1191 2003 1191 1497 
Q 1191 994 1439 701 
Q 1688 409 2113 409 
Q 2538 409 2786 701 
Q 3034 994 3034 1497 
Q 3034 2003 2786 2293 
Q 2538 2584 2113 2584 
z
M 3366 4563 
L 3366 3988 
Q 3128 4100 2886 4159 
Q 2644 4219 2406 4219 
Q 1781 4219 1451 3797 
Q 1122 3375 1075 2522 
Q 1259 2794 1537 2939 
Q 1816 3084 2150 3084 
Q 2853 3084 3261 2657 
Q 3669 2231 3669 1497 
Q 3669 778 3244 343 
Q 2819 -91 2113 -91 
Q 1303 -91 875 529 
Q 447 1150 447 2328 
Q 447 3434 972 4092 
Q 1497 4750 2381 4750 
Q 2619 4750 2861 4703 
Q 3103 4656 3366 4563 
z
" transform="scale(0.015625)"/>
       </defs>
       <use xlink:href="#DejaVuSans-36"/>
       <use xlink:href="#DejaVuSans-30" transform="translate(63.623047 0)"/>
      </g>
     </g>
    </g>
    <g id="xtick_5">
     <g id="line2d_5">
      <g>
       <use xlink:href="#m3cce3e4caa" x="520.263716" y="549.007329" style="stroke: #000000; stroke-width: 0.8"/>
      </g>
     </g>
     <g id="text_5">
      <!-- 80 -->
      <g transform="translate(504.357466 575.003423) scale(0.25 -0.25)">
       <defs>
        <path id="DejaVuSans-38" d="M 2034 2216 
Q 1584 2216 1326 1975 
Q 1069 1734 1069 1313 
Q 1069 891 1326 650 
Q 1584 409 2034 409 
Q 2484 409 2743 651 
Q 3003 894 3003 1313 
Q 3003 1734 2745 1975 
Q 2488 2216 2034 2216 
z
M 1403 2484 
Q 997 2584 770 2862 
Q 544 3141 544 3541 
Q 544 4100 942 4425 
Q 1341 4750 2034 4750 
Q 2731 4750 3128 4425 
Q 3525 4100 3525 3541 
Q 3525 3141 3298 2862 
Q 3072 2584 2669 2484 
Q 3125 2378 3379 2068 
Q 3634 1759 3634 1313 
Q 3634 634 3220 271 
Q 2806 -91 2034 -91 
Q 1263 -91 848 271 
Q 434 634 434 1313 
Q 434 1759 690 2068 
Q 947 2378 1403 2484 
z
M 1172 3481 
Q 1172 3119 1398 2916 
Q 1625 2713 2034 2713 
Q 2441 2713 2670 2916 
Q 2900 3119 2900 3481 
Q 2900 3844 2670 4047 
Q 2441 4250 2034 4250 
Q 1625 4250 1398 4047 
Q 1172 3844 1172 3481 
z
" transform="scale(0.015625)"/>
       </defs>
       <use xlink:href="#DejaVuSans-38"/>
       <use xlink:href="#DejaVuSans-30" transform="translate(63.623047 0)"/>
      </g>
     </g>
    </g>
    <g id="xtick_6">
     <g id="line2d_6">
      <g>
       <use xlink:href="#m3cce3e4caa" x="614.307887" y="549.007329" style="stroke: #000000; stroke-width: 0.8"/>
      </g>
     </g>
     <g id="text_6">
      <!-- 100 -->
      <g transform="translate(590.448512 575.003423) scale(0.25 -0.25)">
       <defs>
        <path id="DejaVuSans-31" d="M 794 531 
L 1825 531 
L 1825 4091 
L 703 3866 
L 703 4441 
L 1819 4666 
L 2450 4666 
L 2450 531 
L 3481 531 
L 3481 0 
L 794 0 
L 794 531 
z
" transform="scale(0.015625)"/>
       </defs>
       <use xlink:href="#DejaVuSans-31"/>
       <use xlink:href="#DejaVuSans-30" transform="translate(63.623047 0)"/>
       <use xlink:href="#DejaVuSans-30" transform="translate(127.246094 0)"/>
      </g>
     </g>
    </g>
    <g id="text_7">
     <!-- Relative Activity (%) -->
     <g transform="translate(225.776079 606.997954) scale(0.3 -0.3)">
      <defs>
       <path id="DejaVuSans-52" d="M 2841 2188 
Q 3044 2119 3236 1894 
Q 3428 1669 3622 1275 
L 4263 0 
L 3584 0 
L 2988 1197 
Q 2756 1666 2539 1819 
Q 2322 1972 1947 1972 
L 1259 1972 
L 1259 0 
L 628 0 
L 628 4666 
L 2053 4666 
Q 2853 4666 3247 4331 
Q 3641 3997 3641 3322 
Q 3641 2881 3436 2590 
Q 3231 2300 2841 2188 
z
M 1259 4147 
L 1259 2491 
L 2053 2491 
Q 2509 2491 2742 2702 
Q 2975 2913 2975 3322 
Q 2975 3731 2742 3939 
Q 2509 4147 2053 4147 
L 1259 4147 
z
" transform="scale(0.015625)"/>
       <path id="DejaVuSans-65" d="M 3597 1894 
L 3597 1613 
L 953 1613 
Q 991 1019 1311 708 
Q 1631 397 2203 397 
Q 2534 397 2845 478 
Q 3156 559 3463 722 
L 3463 178 
Q 3153 47 2828 -22 
Q 2503 -91 2169 -91 
Q 1331 -91 842 396 
Q 353 884 353 1716 
Q 353 2575 817 3079 
Q 1281 3584 2069 3584 
Q 2775 3584 3186 3129 
Q 3597 2675 3597 1894 
z
M 3022 2063 
Q 3016 2534 2758 2815 
Q 2500 3097 2075 3097 
Q 1594 3097 1305 2825 
Q 1016 2553 972 2059 
L 3022 2063 
z
" transform="scale(0.015625)"/>
       <path id="DejaVuSans-6c" d="M 603 4863 
L 1178 4863 
L 1178 0 
L 603 0 
L 603 4863 
z
" transform="scale(0.015625)"/>
       <path id="DejaVuSans-61" d="M 2194 1759 
Q 1497 1759 1228 1600 
Q 959 1441 959 1056 
Q 959 750 1161 570 
Q 1363 391 1709 391 
Q 2188 391 2477 730 
Q 2766 1069 2766 1631 
L 2766 1759 
L 2194 1759 
z
M 3341 1997 
L 3341 0 
L 2766 0 
L 2766 531 
Q 2569 213 2275 61 
Q 1981 -91 1556 -91 
Q 1019 -91 701 211 
Q 384 513 384 1019 
Q 384 1609 779 1909 
Q 1175 2209 1959 2209 
L 2766 2209 
L 2766 2266 
Q 2766 2663 2505 2880 
Q 2244 3097 1772 3097 
Q 1472 3097 1187 3025 
Q 903 2953 641 2809 
L 641 3341 
Q 956 3463 1253 3523 
Q 1550 3584 1831 3584 
Q 2591 3584 2966 3190 
Q 3341 2797 3341 1997 
z
" transform="scale(0.015625)"/>
       <path id="DejaVuSans-74" d="M 1172 4494 
L 1172 3500 
L 2356 3500 
L 2356 3053 
L 1172 3053 
L 1172 1153 
Q 1172 725 1289 603 
Q 1406 481 1766 481 
L 2356 481 
L 2356 0 
L 1766 0 
Q 1100 0 847 248 
Q 594 497 594 1153 
L 594 3053 
L 172 3053 
L 172 3500 
L 594 3500 
L 594 4494 
L 1172 4494 
z
" transform="scale(0.015625)"/>
       <path id="DejaVuSans-69" d="M 603 3500 
L 1178 3500 
L 1178 0 
L 603 0 
L 603 3500 
z
M 603 4863 
L 1178 4863 
L 1178 4134 
L 603 4134 
L 603 4863 
z
" transform="scale(0.015625)"/>
       <path id="DejaVuSans-76" d="M 191 3500 
L 800 3500 
L 1894 563 
L 2988 3500 
L 3597 3500 
L 2284 0 
L 1503 0 
L 191 3500 
z
" transform="scale(0.015625)"/>
       <path id="DejaVuSans-20" transform="scale(0.015625)"/>
       <path id="DejaVuSans-41" d="M 2188 4044 
L 1331 1722 
L 3047 1722 
L 2188 4044 
z
M 1831 4666 
L 2547 4666 
L 4325 0 
L 3669 0 
L 3244 1197 
L 1141 1197 
L 716 0 
L 50 0 
L 1831 4666 
z
" transform="scale(0.015625)"/>
       <path id="DejaVuSans-63" d="M 3122 3366 
L 3122 2828 
Q 2878 2963 2633 3030 
Q 2388 3097 2138 3097 
Q 1578 3097 1268 2742 
Q 959 2388 959 1747 
Q 959 1106 1268 751 
Q 1578 397 2138 397 
Q 2388 397 2633 464 
Q 2878 531 3122 666 
L 3122 134 
Q 2881 22 2623 -34 
Q 2366 -91 2075 -91 
Q 1284 -91 818 406 
Q 353 903 353 1747 
Q 353 2603 823 3093 
Q 1294 3584 2113 3584 
Q 2378 3584 2631 3529 
Q 2884 3475 3122 3366 
z
" transform="scale(0.015625)"/>
       <path id="DejaVuSans-79" d="M 2059 -325 
Q 1816 -950 1584 -1140 
Q 1353 -1331 966 -1331 
L 506 -1331 
L 506 -850 
L 844 -850 
Q 1081 -850 1212 -737 
Q 1344 -625 1503 -206 
L 1606 56 
L 191 3500 
L 800 3500 
L 1894 763 
L 2988 3500 
L 3597 3500 
L 2059 -325 
z
" transform="scale(0.015625)"/>
       <path id="DejaVuSans-28" d="M 1984 4856 
Q 1566 4138 1362 3434 
Q 1159 2731 1159 2009 
Q 1159 1288 1364 580 
Q 1569 -128 1984 -844 
L 1484 -844 
Q 1016 -109 783 600 
Q 550 1309 550 2009 
Q 550 2706 781 3412 
Q 1013 4119 1484 4856 
L 1984 4856 
z
" transform="scale(0.015625)"/>
       <path id="DejaVuSans-25" d="M 4653 2053 
Q 4381 2053 4226 1822 
Q 4072 1591 4072 1178 
Q 4072 772 4226 539 
Q 4381 306 4653 306 
Q 4919 306 5073 539 
Q 5228 772 5228 1178 
Q 5228 1588 5073 1820 
Q 4919 2053 4653 2053 
z
M 4653 2450 
Q 5147 2450 5437 2106 
Q 5728 1763 5728 1178 
Q 5728 594 5436 251 
Q 5144 -91 4653 -91 
Q 4153 -91 3862 251 
Q 3572 594 3572 1178 
Q 3572 1766 3864 2108 
Q 4156 2450 4653 2450 
z
M 1428 4353 
Q 1159 4353 1004 4120 
Q 850 3888 850 3481 
Q 850 3069 1003 2837 
Q 1156 2606 1428 2606 
Q 1700 2606 1854 2837 
Q 2009 3069 2009 3481 
Q 2009 3884 1853 4118 
Q 1697 4353 1428 4353 
z
M 4250 4750 
L 4750 4750 
L 1831 -91 
L 1331 -91 
L 4250 4750 
z
M 1428 4750 
Q 1922 4750 2215 4408 
Q 2509 4066 2509 3481 
Q 2509 2891 2217 2550 
Q 1925 2209 1428 2209 
Q 931 2209 642 2551 
Q 353 2894 353 3481 
Q 353 4063 643 4406 
Q 934 4750 1428 4750 
z
" transform="scale(0.015625)"/>
       <path id="DejaVuSans-29" d="M 513 4856 
L 1013 4856 
Q 1481 4119 1714 3412 
Q 1947 2706 1947 2009 
Q 1947 1309 1714 600 
Q 1481 -109 1013 -844 
L 513 -844 
Q 928 -128 1133 580 
Q 1338 1288 1338 2009 
Q 1338 2731 1133 3434 
Q 928 4138 513 4856 
z
" transform="scale(0.015625)"/>
      </defs>
      <use xlink:href="#DejaVuSans-52"/>
      <use xlink:href="#DejaVuSans-65" transform="translate(64.982422 0)"/>
      <use xlink:href="#DejaVuSans-6c" transform="translate(126.505859 0)"/>
      <use xlink:href="#DejaVuSans-61" transform="translate(154.289062 0)"/>
      <use xlink:href="#DejaVuSans-74" transform="translate(215.568359 0)"/>
      <use xlink:href="#DejaVuSans-69" transform="translate(254.777344 0)"/>
      <use xlink:href="#DejaVuSans-76" transform="translate(282.560547 0)"/>
      <use xlink:href="#DejaVuSans-65" transform="translate(341.740234 0)"/>
      <use xlink:href="#DejaVuSans-20" transform="translate(403.263672 0)"/>
      <use xlink:href="#DejaVuSans-41" transform="translate(435.050781 0)"/>
      <use xlink:href="#DejaVuSans-63" transform="translate(501.708984 0)"/>
      <use xlink:href="#DejaVuSans-74" transform="translate(556.689453 0)"/>
      <use xlink:href="#DejaVuSans-69" transform="translate(595.898438 0)"/>
      <use xlink:href="#DejaVuSans-76" transform="translate(623.681641 0)"/>
      <use xlink:href="#DejaVuSans-69" transform="translate(682.861328 0)"/>
      <use xlink:href="#DejaVuSans-74" transform="translate(710.644531 0)"/>
      <use xlink:href="#DejaVuSans-79" transform="translate(749.853516 0)"/>
      <use xlink:href="#DejaVuSans-20" transform="translate(809.033203 0)"/>
      <use xlink:href="#DejaVuSans-28" transform="translate(840.820312 0)"/>
      <use xlink:href="#DejaVuSans-25" transform="translate(879.833984 0)"/>
      <use xlink:href="#DejaVuSans-29" transform="translate(974.853516 0)"/>
     </g>
    </g>
   </g>
   <g id="matplotlib.axis_2">
    <g id="ytick_1">
     <g id="line2d_7">
      <defs>
       <path id="m5cd74435f3" d="M 0 0 
L -3.5 0 
" style="stroke: #000000; stroke-width: 0.8"/>
      </defs>
      <g>
       <use xlink:href="#m5cd74435f3" x="120.71" y="460.933084" style="stroke: #000000; stroke-width: 0.8"/>
      </g>
     </g>
     <g id="text_8">
      <!-- 2.835 -->
      <g transform="translate(42.139688 470.431131) scale(0.25 -0.25)">
       <defs>
        <path id="DejaVuSans-2e" d="M 684 794 
L 1344 794 
L 1344 0 
L 684 0 
L 684 794 
z
" transform="scale(0.015625)"/>
        <path id="DejaVuSans-33" d="M 2597 2516 
Q 3050 2419 3304 2112 
Q 3559 1806 3559 1356 
Q 3559 666 3084 287 
Q 2609 -91 1734 -91 
Q 1441 -91 1130 -33 
Q 819 25 488 141 
L 488 750 
Q 750 597 1062 519 
Q 1375 441 1716 441 
Q 2309 441 2620 675 
Q 2931 909 2931 1356 
Q 2931 1769 2642 2001 
Q 2353 2234 1838 2234 
L 1294 2234 
L 1294 2753 
L 1863 2753 
Q 2328 2753 2575 2939 
Q 2822 3125 2822 3475 
Q 2822 3834 2567 4026 
Q 2313 4219 1838 4219 
Q 1578 4219 1281 4162 
Q 984 4106 628 3988 
L 628 4550 
Q 988 4650 1302 4700 
Q 1616 4750 1894 4750 
Q 2613 4750 3031 4423 
Q 3450 4097 3450 3541 
Q 3450 3153 3228 2886 
Q 3006 2619 2597 2516 
z
" transform="scale(0.015625)"/>
        <path id="DejaVuSans-35" d="M 691 4666 
L 3169 4666 
L 3169 4134 
L 1269 4134 
L 1269 2991 
Q 1406 3038 1543 3061 
Q 1681 3084 1819 3084 
Q 2600 3084 3056 2656 
Q 3513 2228 3513 1497 
Q 3513 744 3044 326 
Q 2575 -91 1722 -91 
Q 1428 -91 1123 -41 
Q 819 9 494 109 
L 494 744 
Q 775 591 1075 516 
Q 1375 441 1709 441 
Q 2250 441 2565 725 
Q 2881 1009 2881 1497 
Q 2881 1984 2565 2268 
Q 2250 2553 1709 2553 
Q 1456 2553 1204 2497 
Q 953 2441 691 2322 
L 691 4666 
z
" transform="scale(0.015625)"/>
       </defs>
       <use xlink:href="#DejaVuSans-32"/>
       <use xlink:href="#DejaVuSans-2e" transform="translate(63.623047 0)"/>
       <use xlink:href="#DejaVuSans-38" transform="translate(95.410156 0)"/>
       <use xlink:href="#DejaVuSans-33" transform="translate(159.033203 0)"/>
       <use xlink:href="#DejaVuSans-35" transform="translate(222.65625 0)"/>
      </g>
     </g>
    </g>
    <g id="ytick_2">
     <g id="line2d_8">
      <g>
       <use xlink:href="#m5cd74435f3" x="120.71" y="368.939546" style="stroke: #000000; stroke-width: 0.8"/>
      </g>
     </g>
     <g id="text_9">
      <!-- 2.840 -->
      <g transform="translate(42.139688 378.437593) scale(0.25 -0.25)">
       <use xlink:href="#DejaVuSans-32"/>
       <use xlink:href="#DejaVuSans-2e" transform="translate(63.623047 0)"/>
       <use xlink:href="#DejaVuSans-38" transform="translate(95.410156 0)"/>
       <use xlink:href="#DejaVuSans-34" transform="translate(159.033203 0)"/>
       <use xlink:href="#DejaVuSans-30" transform="translate(222.65625 0)"/>
      </g>
     </g>
    </g>
    <g id="ytick_3">
     <g id="line2d_9">
      <g>
       <use xlink:href="#m5cd74435f3" x="120.71" y="276.946008" style="stroke: #000000; stroke-width: 0.8"/>
      </g>
     </g>
     <g id="text_10">
      <!-- 2.845 -->
      <g transform="translate(42.139688 286.444054) scale(0.25 -0.25)">
       <use xlink:href="#DejaVuSans-32"/>
       <use xlink:href="#DejaVuSans-2e" transform="translate(63.623047 0)"/>
       <use xlink:href="#DejaVuSans-38" transform="translate(95.410156 0)"/>
       <use xlink:href="#DejaVuSans-34" transform="translate(159.033203 0)"/>
       <use xlink:href="#DejaVuSans-35" transform="translate(222.65625 0)"/>
      </g>
     </g>
    </g>
    <g id="ytick_4">
     <g id="line2d_10">
      <g>
       <use xlink:href="#m5cd74435f3" x="120.71" y="184.95247" style="stroke: #000000; stroke-width: 0.8"/>
      </g>
     </g>
     <g id="text_11">
      <!-- 2.850 -->
      <g transform="translate(42.139688 194.450516) scale(0.25 -0.25)">
       <use xlink:href="#DejaVuSans-32"/>
       <use xlink:href="#DejaVuSans-2e" transform="translate(63.623047 0)"/>
       <use xlink:href="#DejaVuSans-38" transform="translate(95.410156 0)"/>
       <use xlink:href="#DejaVuSans-35" transform="translate(159.033203 0)"/>
       <use xlink:href="#DejaVuSans-30" transform="translate(222.65625 0)"/>
      </g>
     </g>
    </g>
    <g id="ytick_5">
     <g id="line2d_11">
      <g>
       <use xlink:href="#m5cd74435f3" x="120.71" y="92.958932" style="stroke: #000000; stroke-width: 0.8"/>
      </g>
     </g>
     <g id="text_12">
      <!-- 2.855 -->
      <g transform="translate(42.139688 102.456978) scale(0.25 -0.25)">
       <use xlink:href="#DejaVuSans-32"/>
       <use xlink:href="#DejaVuSans-2e" transform="translate(63.623047 0)"/>
       <use xlink:href="#DejaVuSans-38" transform="translate(95.410156 0)"/>
       <use xlink:href="#DejaVuSans-35" transform="translate(159.033203 0)"/>
       <use xlink:href="#DejaVuSans-35" transform="translate(222.65625 0)"/>
      </g>
     </g>
    </g>
    <g id="text_13">
     <!-- UniRep Score -->
     <g transform="translate(31.900625 391.785781) rotate(-90) scale(0.3 -0.3)">
      <defs>
       <path id="DejaVuSans-55" d="M 556 4666 
L 1191 4666 
L 1191 1831 
Q 1191 1081 1462 751 
Q 1734 422 2344 422 
Q 2950 422 3222 751 
Q 3494 1081 3494 1831 
L 3494 4666 
L 4128 4666 
L 4128 1753 
Q 4128 841 3676 375 
Q 3225 -91 2344 -91 
Q 1459 -91 1007 375 
Q 556 841 556 1753 
L 556 4666 
z
" transform="scale(0.015625)"/>
       <path id="DejaVuSans-6e" d="M 3513 2113 
L 3513 0 
L 2938 0 
L 2938 2094 
Q 2938 2591 2744 2837 
Q 2550 3084 2163 3084 
Q 1697 3084 1428 2787 
Q 1159 2491 1159 1978 
L 1159 0 
L 581 0 
L 581 3500 
L 1159 3500 
L 1159 2956 
Q 1366 3272 1645 3428 
Q 1925 3584 2291 3584 
Q 2894 3584 3203 3211 
Q 3513 2838 3513 2113 
z
" transform="scale(0.015625)"/>
       <path id="DejaVuSans-70" d="M 1159 525 
L 1159 -1331 
L 581 -1331 
L 581 3500 
L 1159 3500 
L 1159 2969 
Q 1341 3281 1617 3432 
Q 1894 3584 2278 3584 
Q 2916 3584 3314 3078 
Q 3713 2572 3713 1747 
Q 3713 922 3314 415 
Q 2916 -91 2278 -91 
Q 1894 -91 1617 61 
Q 1341 213 1159 525 
z
M 3116 1747 
Q 3116 2381 2855 2742 
Q 2594 3103 2138 3103 
Q 1681 3103 1420 2742 
Q 1159 2381 1159 1747 
Q 1159 1113 1420 752 
Q 1681 391 2138 391 
Q 2594 391 2855 752 
Q 3116 1113 3116 1747 
z
" transform="scale(0.015625)"/>
       <path id="DejaVuSans-53" d="M 3425 4513 
L 3425 3897 
Q 3066 4069 2747 4153 
Q 2428 4238 2131 4238 
Q 1616 4238 1336 4038 
Q 1056 3838 1056 3469 
Q 1056 3159 1242 3001 
Q 1428 2844 1947 2747 
L 2328 2669 
Q 3034 2534 3370 2195 
Q 3706 1856 3706 1288 
Q 3706 609 3251 259 
Q 2797 -91 1919 -91 
Q 1588 -91 1214 -16 
Q 841 59 441 206 
L 441 856 
Q 825 641 1194 531 
Q 1563 422 1919 422 
Q 2459 422 2753 634 
Q 3047 847 3047 1241 
Q 3047 1584 2836 1778 
Q 2625 1972 2144 2069 
L 1759 2144 
Q 1053 2284 737 2584 
Q 422 2884 422 3419 
Q 422 4038 858 4394 
Q 1294 4750 2059 4750 
Q 2388 4750 2728 4690 
Q 3069 4631 3425 4513 
z
" transform="scale(0.015625)"/>
       <path id="DejaVuSans-6f" d="M 1959 3097 
Q 1497 3097 1228 2736 
Q 959 2375 959 1747 
Q 959 1119 1226 758 
Q 1494 397 1959 397 
Q 2419 397 2687 759 
Q 2956 1122 2956 1747 
Q 2956 2369 2687 2733 
Q 2419 3097 1959 3097 
z
M 1959 3584 
Q 2709 3584 3137 3096 
Q 3566 2609 3566 1747 
Q 3566 888 3137 398 
Q 2709 -91 1959 -91 
Q 1206 -91 779 398 
Q 353 888 353 1747 
Q 353 2609 779 3096 
Q 1206 3584 1959 3584 
z
" transform="scale(0.015625)"/>
       <path id="DejaVuSans-72" d="M 2631 2963 
Q 2534 3019 2420 3045 
Q 2306 3072 2169 3072 
Q 1681 3072 1420 2755 
Q 1159 2438 1159 1844 
L 1159 0 
L 581 0 
L 581 3500 
L 1159 3500 
L 1159 2956 
Q 1341 3275 1631 3429 
Q 1922 3584 2338 3584 
Q 2397 3584 2469 3576 
Q 2541 3569 2628 3553 
L 2631 2963 
z
" transform="scale(0.015625)"/>
      </defs>
      <use xlink:href="#DejaVuSans-55"/>
      <use xlink:href="#DejaVuSans-6e" transform="translate(73.193359 0)"/>
      <use xlink:href="#DejaVuSans-69" transform="translate(136.572266 0)"/>
      <use xlink:href="#DejaVuSans-52" transform="translate(164.355469 0)"/>
      <use xlink:href="#DejaVuSans-65" transform="translate(229.337891 0)"/>
      <use xlink:href="#DejaVuSans-70" transform="translate(290.861328 0)"/>
      <use xlink:href="#DejaVuSans-20" transform="translate(354.337891 0)"/>
      <use xlink:href="#DejaVuSans-53" transform="translate(386.125 0)"/>
      <use xlink:href="#DejaVuSans-63" transform="translate(449.601562 0)"/>
      <use xlink:href="#DejaVuSans-6f" transform="translate(504.582031 0)"/>
      <use xlink:href="#DejaVuSans-72" transform="translate(565.763672 0)"/>
      <use xlink:href="#DejaVuSans-65" transform="translate(604.626953 0)"/>
     </g>
    </g>
   </g>
   <g id="line2d_12">
    <path d="M 144.08703 316.581406 
L 148.809662 315.658103 
L 153.532295 314.746766 
L 158.254927 313.847397 
L 162.977559 312.959995 
L 167.700191 312.08456 
L 172.422824 311.221092 
L 177.145456 310.369591 
L 181.868088 309.530057 
L 186.590721 308.70249 
L 191.313353 307.88689 
L 196.035985 307.083257 
L 200.758618 306.291592 
L 205.48125 305.511893 
L 210.203882 304.744162 
L 214.926514 303.988397 
L 219.649147 303.2446 
L 224.371779 302.51277 
L 229.094411 301.792907 
L 233.817044 301.085011 
L 238.539676 300.389082 
L 243.262308 299.70512 
L 247.984941 299.033125 
L 252.707573 298.373097 
L 257.430205 297.725037 
L 262.152838 297.088943 
L 266.87547 296.464817 
L 271.598102 295.852657 
L 276.320734 295.252465 
L 281.043367 294.66424 
L 285.765999 294.087982 
L 290.488631 293.523691 
L 295.211264 292.971367 
L 299.933896 292.43101 
L 304.656528 291.90262 
L 309.379161 291.386197 
L 314.101793 290.881741 
L 318.824425 290.389253 
L 323.547058 289.908731 
L 328.26969 289.440177 
L 332.992322 288.98359 
L 337.714954 288.538969 
L 342.437587 288.106316 
L 347.160219 287.68563 
L 351.882851 287.276911 
L 356.605484 286.880159 
L 361.328116 286.495374 
L 366.050748 286.122557 
L 370.773381 285.761706 
L 375.496013 285.412822 
L 380.218645 285.075906 
L 384.941277 284.750956 
L 389.66391 284.437974 
L 394.386542 284.136959 
L 399.109174 283.84791 
L 403.831807 283.570829 
L 408.554439 283.305715 
L 413.277071 283.052568 
L 417.999704 282.811388 
L 422.722336 282.582176 
L 427.444968 282.36493 
L 432.167601 282.159651 
L 436.890233 281.96634 
L 441.612865 281.784995 
L 446.335497 281.615618 
L 451.05813 281.458207 
L 455.780762 281.312764 
L 460.503394 281.179288 
L 465.226027 281.057779 
L 469.948659 280.948237 
L 474.671291 280.850662 
L 479.393924 280.765054 
L 484.116556 280.691413 
L 488.839188 280.62974 
L 493.561821 280.580033 
L 498.284453 280.542294 
L 503.007085 280.516521 
L 507.729717 280.502716 
L 512.45235 280.500878 
L 517.174982 280.511006 
L 521.897614 280.533102 
L 526.620247 280.567165 
L 531.342879 280.613195 
L 536.065511 280.671192 
L 540.788144 280.741157 
L 545.510776 280.823088 
L 550.233408 280.916986 
L 554.95604 281.022852 
L 559.678673 281.140684 
L 564.401305 281.270484 
L 569.123937 281.412251 
L 573.84657 281.565984 
L 578.569202 281.731685 
L 583.291834 281.909353 
L 588.014467 282.098988 
L 592.737099 282.30059 
L 597.459731 282.51416 
L 602.182364 282.739696 
L 606.904996 282.977199 
L 611.627628 283.22667 
" clip-path="url(#p55700b482b)" style="fill: none; stroke: #a9a9a9; stroke-width: 2.25; stroke-linecap: square"/>
   </g>
   <g id="patch_3">
    <path d="M 120.71 549.007329 
L 120.71 34.712671 
" style="fill: none; stroke: #000000; stroke-width: 0.8; stroke-linejoin: miter; stroke-linecap: square"/>
   </g>
   <g id="patch_4">
    <path d="M 635.004658 549.007329 
L 635.004658 34.712671 
" style="fill: none; stroke: #000000; stroke-width: 0.8; stroke-linejoin: miter; stroke-linecap: square"/>
   </g>
   <g id="patch_5">
    <path d="M 120.71 549.007329 
L 635.004658 549.007329 
" style="fill: none; stroke: #000000; stroke-width: 0.8; stroke-linejoin: miter; stroke-linecap: square"/>
   </g>
   <g id="patch_6">
    <path d="M 120.71 34.712671 
L 635.004658 34.712671 
" style="fill: none; stroke: #000000; stroke-width: 0.8; stroke-linejoin: miter; stroke-linecap: square"/>
   </g>
   <g id="legend_1">
    <g id="patch_7">
     <path d="M 323.604658 534.007329 
L 614.004658 534.007329 
Q 620.004658 534.007329 620.004658 528.007329 
L 620.004658 442.938579 
Q 620.004658 436.938579 614.004658 436.938579 
L 323.604658 436.938579 
Q 317.604658 436.938579 317.604658 442.938579 
L 317.604658 528.007329 
Q 317.604658 534.007329 323.604658 534.007329 
z
" style="fill: #ffffff; opacity: 0.7; stroke: #cccccc; stroke-linejoin: miter"/>
    </g>
    <g id="patch_8">
     <path d="M 329.604658 471.733892 
L 329.604658 471.733892 
L 329.604658 450.733892 
L 329.604658 450.733892 
L 329.604658 471.733892 
z
" style="fill: none; opacity: 0"/>
    </g>
    <g id="text_14">
     <!-- Met1 = 0.02$\pm$0.15 -->
     <g transform="translate(329.604658 471.733892) scale(0.3 -0.3)">
      <defs>
       <path id="DejaVuSans-4d" d="M 628 4666 
L 1569 4666 
L 2759 1491 
L 3956 4666 
L 4897 4666 
L 4897 0 
L 4281 0 
L 4281 4097 
L 3078 897 
L 2444 897 
L 1241 4097 
L 1241 0 
L 628 0 
L 628 4666 
z
" transform="scale(0.015625)"/>
       <path id="DejaVuSans-3d" d="M 678 2906 
L 4684 2906 
L 4684 2381 
L 678 2381 
L 678 2906 
z
M 678 1631 
L 4684 1631 
L 4684 1100 
L 678 1100 
L 678 1631 
z
" transform="scale(0.015625)"/>
       <path id="DejaVuSans-b1" d="M 2944 4013 
L 2944 2803 
L 4684 2803 
L 4684 2272 
L 2944 2272 
L 2944 1063 
L 2419 1063 
L 2419 2272 
L 678 2272 
L 678 2803 
L 2419 2803 
L 2419 4013 
L 2944 4013 
z
M 678 531 
L 4684 531 
L 4684 0 
L 678 0 
L 678 531 
z
" transform="scale(0.015625)"/>
      </defs>
      <use xlink:href="#DejaVuSans-4d" transform="translate(0 0.78125)"/>
      <use xlink:href="#DejaVuSans-65" transform="translate(86.279297 0.78125)"/>
      <use xlink:href="#DejaVuSans-74" transform="translate(147.802734 0.78125)"/>
      <use xlink:href="#DejaVuSans-31" transform="translate(187.011719 0.78125)"/>
      <use xlink:href="#DejaVuSans-20" transform="translate(250.634766 0.78125)"/>
      <use xlink:href="#DejaVuSans-3d" transform="translate(282.421875 0.78125)"/>
      <use xlink:href="#DejaVuSans-20" transform="translate(366.210938 0.78125)"/>
      <use xlink:href="#DejaVuSans-30" transform="translate(397.998047 0.78125)"/>
      <use xlink:href="#DejaVuSans-2e" transform="translate(461.621094 0.78125)"/>
      <use xlink:href="#DejaVuSans-30" transform="translate(493.408203 0.78125)"/>
      <use xlink:href="#DejaVuSans-32" transform="translate(557.03125 0.78125)"/>
      <use xlink:href="#DejaVuSans-b1" transform="translate(620.654297 0.78125)"/>
      <use xlink:href="#DejaVuSans-30" transform="translate(704.443359 0.78125)"/>
      <use xlink:href="#DejaVuSans-2e" transform="translate(768.066406 0.78125)"/>
      <use xlink:href="#DejaVuSans-31" transform="translate(799.853516 0.78125)"/>
      <use xlink:href="#DejaVuSans-35" transform="translate(863.476562 0.78125)"/>
     </g>
    </g>
    <g id="patch_9">
     <path d="M 329.604658 515.768267 
L 329.604658 515.768267 
L 329.604658 494.768267 
L 329.604658 494.768267 
L 329.604658 515.768267 
z
" style="fill: none; opacity: 0"/>
    </g>
    <g id="text_15">
     <!-- Met2 = 0.28$\pm$0.13 -->
     <g transform="translate(329.604658 515.768267) scale(0.3 -0.3)">
      <use xlink:href="#DejaVuSans-4d" transform="translate(0 0.78125)"/>
      <use xlink:href="#DejaVuSans-65" transform="translate(86.279297 0.78125)"/>
      <use xlink:href="#DejaVuSans-74" transform="translate(147.802734 0.78125)"/>
      <use xlink:href="#DejaVuSans-32" transform="translate(187.011719 0.78125)"/>
      <use xlink:href="#DejaVuSans-20" transform="translate(250.634766 0.78125)"/>
      <use xlink:href="#DejaVuSans-3d" transform="translate(282.421875 0.78125)"/>
      <use xlink:href="#DejaVuSans-20" transform="translate(366.210938 0.78125)"/>
      <use xlink:href="#DejaVuSans-30" transform="translate(397.998047 0.78125)"/>
      <use xlink:href="#DejaVuSans-2e" transform="translate(461.621094 0.78125)"/>
      <use xlink:href="#DejaVuSans-32" transform="translate(487.908203 0.78125)"/>
      <use xlink:href="#DejaVuSans-38" transform="translate(551.53125 0.78125)"/>
      <use xlink:href="#DejaVuSans-b1" transform="translate(615.154297 0.78125)"/>
      <use xlink:href="#DejaVuSans-30" transform="translate(698.943359 0.78125)"/>
      <use xlink:href="#DejaVuSans-2e" transform="translate(762.566406 0.78125)"/>
      <use xlink:href="#DejaVuSans-31" transform="translate(794.353516 0.78125)"/>
      <use xlink:href="#DejaVuSans-33" transform="translate(857.976562 0.78125)"/>
     </g>
    </g>
   </g>
  </g>
 </g>
 <defs>
  <clipPath id="p55700b482b">
   <rect x="120.71" y="34.712671" width="514.294658" height="514.294658"/>
  </clipPath>
 </defs>
</svg>
