<?xml version="1.0" encoding="utf-8" standalone="no"?>
<!DOCTYPE svg PUBLIC "-//W3C//DTD SVG 1.1//EN"
  "http://www.w3.org/Graphics/SVG/1.1/DTD/svg11.dtd">
<svg xmlns:xlink="http://www.w3.org/1999/xlink" width="648pt" height="648pt" viewBox="0 0 648 648" xmlns="http://www.w3.org/2000/svg" version="1.1">
 <metadata>
  <rdf:RDF xmlns:dc="http://purl.org/dc/elements/1.1/" xmlns:cc="http://creativecommons.org/ns#" xmlns:rdf="http://www.w3.org/1999/02/22-rdf-syntax-ns#">
   <cc:Work>
    <dc:type rdf:resource="http://purl.org/dc/dcmitype/StillImage"/>
    <dc:date>2025-01-24T16:23:46.155926</dc:date>
    <dc:format>image/svg+xml</dc:format>
    <dc:creator>
     <cc:Agent>
      <dc:title>Matplotlib v3.7.2, https://matplotlib.org/</dc:title>
     </cc:Agent>
    </dc:creator>
   </cc:Work>
  </rdf:RDF>
 </metadata>
 <defs>
  <style type="text/css">*{stroke-linejoin: round; stroke-linecap: butt}</style>
 </defs>
 <g id="figure_1">
  <g id="patch_1">
   <path d="M 0 648 
L 648 648 
L 648 0 
L 0 0 
z
" style="fill: #ffffff"/>
  </g>
  <g id="axes_1">
   <g id="patch_2">
    <path d="M 125.75 546.487329 
L 635.004658 546.487329 
L 635.004658 37.232671 
L 125.75 37.232671 
z
" style="fill: #ffffff"/>
   </g>
   <g id="PathCollection_1">
    <defs>
     <path id="m982636362d" d="M 0 8.660254 
C 2.296726 8.660254 4.499694 7.747755 6.123724 6.123724 
C 7.747755 4.499694 8.660254 2.296726 8.660254 0 
C 8.660254 -2.296726 7.747755 -4.499694 6.123724 -6.123724 
C 4.499694 -7.747755 2.296726 -8.660254 0 -8.660254 
C -2.296726 -8.660254 -4.499694 -7.747755 -6.123724 -6.123724 
C -7.747755 -4.499694 -8.660254 -2.296726 -8.660254 0 
C -8.660254 2.296726 -7.747755 4.499694 -6.123724 6.123724 
C -4.499694 7.747755 -2.296726 8.660254 0 8.660254 
z
" style="stroke: #000000; stroke-opacity: 0.8"/>
    </defs>
    <g clip-path="url(#p62c4cb43c2)">
     <use xlink:href="#m982636362d" x="224.839382" y="212.985363" style="fill: #df9966; fill-opacity: 0.8; stroke: #000000; stroke-opacity: 0.8"/>
     <use xlink:href="#m982636362d" x="295.007227" y="193.198258" style="fill: #df9966; fill-opacity: 0.8; stroke: #000000; stroke-opacity: 0.8"/>
     <use xlink:href="#m982636362d" x="209.287916" y="200.036309" style="fill: #df9966; fill-opacity: 0.8; stroke: #000000; stroke-opacity: 0.8"/>
     <use xlink:href="#m982636362d" x="170.316127" y="231.129367" style="fill: #df9966; fill-opacity: 0.8; stroke: #000000; stroke-opacity: 0.8"/>
     <use xlink:href="#m982636362d" x="160.072646" y="196.445945" style="fill: #df9966; fill-opacity: 0.8; stroke: #000000; stroke-opacity: 0.8"/>
     <use xlink:href="#m982636362d" x="156.859917" y="102.71053" style="fill: #df9966; fill-opacity: 0.8; stroke: #000000; stroke-opacity: 0.8"/>
     <use xlink:href="#m982636362d" x="611.856719" y="63.806981" style="fill: #df9966; fill-opacity: 0.8; stroke: #000000; stroke-opacity: 0.8"/>
     <use xlink:href="#m982636362d" x="148.897939" y="259.675181" style="fill: #df9966; fill-opacity: 0.8; stroke: #000000; stroke-opacity: 0.8"/>
     <use xlink:href="#m982636362d" x="148.897939" y="251.847219" style="fill: #df9966; fill-opacity: 0.8; stroke: #000000; stroke-opacity: 0.8"/>
     <use xlink:href="#m982636362d" x="148.897939" y="295.20914" style="fill: #df9966; fill-opacity: 0.8; stroke: #000000; stroke-opacity: 0.8"/>
     <use xlink:href="#m982636362d" x="192.618978" y="79.869114" style="fill: #df9966; fill-opacity: 0.8; stroke: #000000; stroke-opacity: 0.8"/>
     <use xlink:href="#m982636362d" x="595.886201" y="204.360469" style="fill: #df9966; fill-opacity: 0.8; stroke: #000000; stroke-opacity: 0.8"/>
     <use xlink:href="#m982636362d" x="148.897939" y="314.19971" style="fill: #df9966; fill-opacity: 0.8; stroke: #000000; stroke-opacity: 0.8"/>
     <use xlink:href="#m982636362d" x="148.897939" y="177.946558" style="fill: #df9966; fill-opacity: 0.8; stroke: #000000; stroke-opacity: 0.8"/>
     <use xlink:href="#m982636362d" x="148.897939" y="245.437613" style="fill: #df9966; fill-opacity: 0.8; stroke: #000000; stroke-opacity: 0.8"/>
     <use xlink:href="#m982636362d" x="148.897939" y="207.395323" style="fill: #df9966; fill-opacity: 0.8; stroke: #000000; stroke-opacity: 0.8"/>
     <use xlink:href="#m982636362d" x="499.445504" y="226.569343" style="fill: #df9966; fill-opacity: 0.8; stroke: #000000; stroke-opacity: 0.8"/>
     <use xlink:href="#m982636362d" x="148.897939" y="433.656535" style="fill: #df9966; fill-opacity: 0.8; stroke: #000000; stroke-opacity: 0.8"/>
     <use xlink:href="#m982636362d" x="376.352433" y="60.38061" style="fill: #df9966; fill-opacity: 0.8; stroke: #000000; stroke-opacity: 0.8"/>
     <use xlink:href="#m982636362d" x="148.897939" y="327.090792" style="fill: #df9966; fill-opacity: 0.8; stroke: #000000; stroke-opacity: 0.8"/>
     <use xlink:href="#m982636362d" x="148.897939" y="424.159662" style="fill: #df9966; fill-opacity: 0.8; stroke: #000000; stroke-opacity: 0.8"/>
     <use xlink:href="#m982636362d" x="156.925746" y="182.663427" style="fill: #df9966; fill-opacity: 0.8; stroke: #000000; stroke-opacity: 0.8"/>
     <use xlink:href="#m982636362d" x="595.779157" y="71.566646" style="fill: #df9966; fill-opacity: 0.8; stroke: #000000; stroke-opacity: 0.8"/>
     <use xlink:href="#m982636362d" x="148.897939" y="359.361975" style="fill: #df9966; fill-opacity: 0.8; stroke: #000000; stroke-opacity: 0.8"/>
     <use xlink:href="#m982636362d" x="234.527853" y="294.743369" style="fill: #df9966; fill-opacity: 0.8; stroke: #000000; stroke-opacity: 0.8"/>
     <use xlink:href="#m982636362d" x="148.897939" y="253.205617" style="fill: #df9966; fill-opacity: 0.8; stroke: #000000; stroke-opacity: 0.8"/>
     <use xlink:href="#m982636362d" x="151.573876" y="110.929215" style="fill: #df9966; fill-opacity: 0.8; stroke: #000000; stroke-opacity: 0.8"/>
     <use xlink:href="#m982636362d" x="175.657292" y="106.21036" style="fill: #df9966; fill-opacity: 0.8; stroke: #000000; stroke-opacity: 0.8"/>
     <use xlink:href="#m982636362d" x="148.897939" y="523.33939" style="fill: #df9966; fill-opacity: 0.8; stroke: #000000; stroke-opacity: 0.8"/>
     <use xlink:href="#m982636362d" x="166.755246" y="94.795608" style="fill: #df9966; fill-opacity: 0.8; stroke: #000000; stroke-opacity: 0.8"/>
     <use xlink:href="#m982636362d" x="148.897939" y="458.970148" style="fill: #df9966; fill-opacity: 0.8; stroke: #000000; stroke-opacity: 0.8"/>
     <use xlink:href="#m982636362d" x="523.240039" y="62.551029" style="fill: #df9966; fill-opacity: 0.8; stroke: #000000; stroke-opacity: 0.8"/>
     <use xlink:href="#m982636362d" x="590.700951" y="134.859414" style="fill: #df9966; fill-opacity: 0.8; stroke: #000000; stroke-opacity: 0.8"/>
     <use xlink:href="#m982636362d" x="554.986356" y="275.883834" style="fill: #df9966; fill-opacity: 0.8; stroke: #000000; stroke-opacity: 0.8"/>
     <use xlink:href="#m982636362d" x="148.897939" y="418.398482" style="fill: #df9966; fill-opacity: 0.8; stroke: #000000; stroke-opacity: 0.8"/>
     <use xlink:href="#m982636362d" x="148.897939" y="152.121511" style="fill: #df9966; fill-opacity: 0.8; stroke: #000000; stroke-opacity: 0.8"/>
     <use xlink:href="#m982636362d" x="154.188995" y="212.532696" style="fill: #df9966; fill-opacity: 0.8; stroke: #000000; stroke-opacity: 0.8"/>
     <use xlink:href="#m982636362d" x="148.897939" y="400.321585" style="fill: #df9966; fill-opacity: 0.8; stroke: #000000; stroke-opacity: 0.8"/>
     <use xlink:href="#m982636362d" x="156.834518" y="248.807997" style="fill: #df9966; fill-opacity: 0.8; stroke: #000000; stroke-opacity: 0.8"/>
     <use xlink:href="#m982636362d" x="148.897939" y="312.543505" style="fill: #df9966; fill-opacity: 0.8; stroke: #000000; stroke-opacity: 0.8"/>
    </g>
   </g>
   <g id="PathCollection_2">
    <defs>
     <path id="m1072ee7ea0" d="M 0 0 
C 0 0 0 0 0 0 
C 0 0 0 0 0 0 
C 0 0 0 0 0 0 
C 0 0 0 0 0 0 
C 0 0 0 0 0 0 
C 0 0 0 0 0 0 
C 0 0 0 0 0 0 
C 0 0 0 0 0 0 
z
" style="stroke: #a9a9a9; stroke-opacity: 0.8"/>
    </defs>
    <g clip-path="url(#p62c4cb43c2)">
     <use xlink:href="#m1072ee7ea0" x="224.839382" y="212.985363" style="fill: #a9a9a9; fill-opacity: 0.8; stroke: #a9a9a9; stroke-opacity: 0.8"/>
     <use xlink:href="#m1072ee7ea0" x="295.007227" y="193.198258" style="fill: #a9a9a9; fill-opacity: 0.8; stroke: #a9a9a9; stroke-opacity: 0.8"/>
     <use xlink:href="#m1072ee7ea0" x="209.287916" y="200.036309" style="fill: #a9a9a9; fill-opacity: 0.8; stroke: #a9a9a9; stroke-opacity: 0.8"/>
     <use xlink:href="#m1072ee7ea0" x="170.316127" y="231.129367" style="fill: #a9a9a9; fill-opacity: 0.8; stroke: #a9a9a9; stroke-opacity: 0.8"/>
     <use xlink:href="#m1072ee7ea0" x="160.072646" y="196.445945" style="fill: #a9a9a9; fill-opacity: 0.8; stroke: #a9a9a9; stroke-opacity: 0.8"/>
     <use xlink:href="#m1072ee7ea0" x="156.859917" y="102.71053" style="fill: #a9a9a9; fill-opacity: 0.8; stroke: #a9a9a9; stroke-opacity: 0.8"/>
     <use xlink:href="#m1072ee7ea0" x="611.856719" y="63.806981" style="fill: #a9a9a9; fill-opacity: 0.8; stroke: #a9a9a9; stroke-opacity: 0.8"/>
     <use xlink:href="#m1072ee7ea0" x="148.897939" y="259.675181" style="fill: #a9a9a9; fill-opacity: 0.8; stroke: #a9a9a9; stroke-opacity: 0.8"/>
     <use xlink:href="#m1072ee7ea0" x="148.897939" y="251.847219" style="fill: #a9a9a9; fill-opacity: 0.8; stroke: #a9a9a9; stroke-opacity: 0.8"/>
     <use xlink:href="#m1072ee7ea0" x="148.897939" y="295.20914" style="fill: #a9a9a9; fill-opacity: 0.8; stroke: #a9a9a9; stroke-opacity: 0.8"/>
     <use xlink:href="#m1072ee7ea0" x="192.618978" y="79.869114" style="fill: #a9a9a9; fill-opacity: 0.8; stroke: #a9a9a9; stroke-opacity: 0.8"/>
     <use xlink:href="#m1072ee7ea0" x="595.886201" y="204.360469" style="fill: #a9a9a9; fill-opacity: 0.8; stroke: #a9a9a9; stroke-opacity: 0.8"/>
     <use xlink:href="#m1072ee7ea0" x="148.897939" y="314.19971" style="fill: #a9a9a9; fill-opacity: 0.8; stroke: #a9a9a9; stroke-opacity: 0.8"/>
     <use xlink:href="#m1072ee7ea0" x="148.897939" y="177.946558" style="fill: #a9a9a9; fill-opacity: 0.8; stroke: #a9a9a9; stroke-opacity: 0.8"/>
     <use xlink:href="#m1072ee7ea0" x="148.897939" y="245.437613" style="fill: #a9a9a9; fill-opacity: 0.8; stroke: #a9a9a9; stroke-opacity: 0.8"/>
     <use xlink:href="#m1072ee7ea0" x="148.897939" y="207.395323" style="fill: #a9a9a9; fill-opacity: 0.8; stroke: #a9a9a9; stroke-opacity: 0.8"/>
     <use xlink:href="#m1072ee7ea0" x="499.445504" y="226.569343" style="fill: #a9a9a9; fill-opacity: 0.8; stroke: #a9a9a9; stroke-opacity: 0.8"/>
     <use xlink:href="#m1072ee7ea0" x="148.897939" y="433.656535" style="fill: #a9a9a9; fill-opacity: 0.8; stroke: #a9a9a9; stroke-opacity: 0.8"/>
     <use xlink:href="#m1072ee7ea0" x="376.352433" y="60.38061" style="fill: #a9a9a9; fill-opacity: 0.8; stroke: #a9a9a9; stroke-opacity: 0.8"/>
     <use xlink:href="#m1072ee7ea0" x="148.897939" y="327.090792" style="fill: #a9a9a9; fill-opacity: 0.8; stroke: #a9a9a9; stroke-opacity: 0.8"/>
     <use xlink:href="#m1072ee7ea0" x="148.897939" y="424.159662" style="fill: #a9a9a9; fill-opacity: 0.8; stroke: #a9a9a9; stroke-opacity: 0.8"/>
     <use xlink:href="#m1072ee7ea0" x="156.925746" y="182.663427" style="fill: #a9a9a9; fill-opacity: 0.8; stroke: #a9a9a9; stroke-opacity: 0.8"/>
     <use xlink:href="#m1072ee7ea0" x="595.779157" y="71.566646" style="fill: #a9a9a9; fill-opacity: 0.8; stroke: #a9a9a9; stroke-opacity: 0.8"/>
     <use xlink:href="#m1072ee7ea0" x="148.897939" y="359.361975" style="fill: #a9a9a9; fill-opacity: 0.8; stroke: #a9a9a9; stroke-opacity: 0.8"/>
     <use xlink:href="#m1072ee7ea0" x="234.527853" y="294.743369" style="fill: #a9a9a9; fill-opacity: 0.8; stroke: #a9a9a9; stroke-opacity: 0.8"/>
     <use xlink:href="#m1072ee7ea0" x="148.897939" y="253.205617" style="fill: #a9a9a9; fill-opacity: 0.8; stroke: #a9a9a9; stroke-opacity: 0.8"/>
     <use xlink:href="#m1072ee7ea0" x="151.573876" y="110.929215" style="fill: #a9a9a9; fill-opacity: 0.8; stroke: #a9a9a9; stroke-opacity: 0.8"/>
     <use xlink:href="#m1072ee7ea0" x="175.657292" y="106.21036" style="fill: #a9a9a9; fill-opacity: 0.8; stroke: #a9a9a9; stroke-opacity: 0.8"/>
     <use xlink:href="#m1072ee7ea0" x="148.897939" y="523.33939" style="fill: #a9a9a9; fill-opacity: 0.8; stroke: #a9a9a9; stroke-opacity: 0.8"/>
     <use xlink:href="#m1072ee7ea0" x="166.755246" y="94.795608" style="fill: #a9a9a9; fill-opacity: 0.8; stroke: #a9a9a9; stroke-opacity: 0.8"/>
     <use xlink:href="#m1072ee7ea0" x="148.897939" y="458.970148" style="fill: #a9a9a9; fill-opacity: 0.8; stroke: #a9a9a9; stroke-opacity: 0.8"/>
     <use xlink:href="#m1072ee7ea0" x="523.240039" y="62.551029" style="fill: #a9a9a9; fill-opacity: 0.8; stroke: #a9a9a9; stroke-opacity: 0.8"/>
     <use xlink:href="#m1072ee7ea0" x="590.700951" y="134.859414" style="fill: #a9a9a9; fill-opacity: 0.8; stroke: #a9a9a9; stroke-opacity: 0.8"/>
     <use xlink:href="#m1072ee7ea0" x="554.986356" y="275.883834" style="fill: #a9a9a9; fill-opacity: 0.8; stroke: #a9a9a9; stroke-opacity: 0.8"/>
     <use xlink:href="#m1072ee7ea0" x="148.897939" y="418.398482" style="fill: #a9a9a9; fill-opacity: 0.8; stroke: #a9a9a9; stroke-opacity: 0.8"/>
     <use xlink:href="#m1072ee7ea0" x="148.897939" y="152.121511" style="fill: #a9a9a9; fill-opacity: 0.8; stroke: #a9a9a9; stroke-opacity: 0.8"/>
     <use xlink:href="#m1072ee7ea0" x="154.188995" y="212.532696" style="fill: #a9a9a9; fill-opacity: 0.8; stroke: #a9a9a9; stroke-opacity: 0.8"/>
     <use xlink:href="#m1072ee7ea0" x="148.897939" y="400.321585" style="fill: #a9a9a9; fill-opacity: 0.8; stroke: #a9a9a9; stroke-opacity: 0.8"/>
     <use xlink:href="#m1072ee7ea0" x="156.834518" y="248.807997" style="fill: #a9a9a9; fill-opacity: 0.8; stroke: #a9a9a9; stroke-opacity: 0.8"/>
     <use xlink:href="#m1072ee7ea0" x="148.897939" y="312.543505" style="fill: #a9a9a9; fill-opacity: 0.8; stroke: #a9a9a9; stroke-opacity: 0.8"/>
    </g>
   </g>
   <g id="PolyCollection_1">
    <path d="M 148.897939 260.87625 
L 148.897939 290.902069 
L 153.57429 284.762187 
L 158.250642 278.741664 
L 162.926993 273.08914 
L 167.603344 267.895821 
L 172.279696 262.946453 
L 176.956047 258.252148 
L 181.632398 253.497066 
L 186.30875 248.705194 
L 190.985101 244.262064 
L 195.661452 239.998535 
L 200.337803 235.852985 
L 205.014155 231.712865 
L 209.690506 228.097428 
L 214.366857 224.927133 
L 219.043209 221.165958 
L 223.71956 217.612204 
L 228.395911 214.210239 
L 233.072263 210.974427 
L 237.748614 207.833428 
L 242.424965 204.878231 
L 247.101317 201.318114 
L 251.777668 198.69068 
L 256.454019 195.993289 
L 261.130371 193.180406 
L 265.806722 191.026682 
L 270.483073 188.709576 
L 275.159424 186.186866 
L 279.835776 183.961537 
L 284.512127 181.192132 
L 289.188478 178.782633 
L 293.86483 176.651565 
L 298.541181 174.490576 
L 303.217532 172.669851 
L 307.893884 170.512466 
L 312.570235 168.176461 
L 317.246586 166.28637 
L 321.922938 164.442216 
L 326.599289 162.602801 
L 331.27564 160.783891 
L 335.951992 159.004965 
L 340.628343 157.330075 
L 345.304694 155.653372 
L 349.981045 154.176418 
L 354.657397 152.471936 
L 359.333748 150.969462 
L 364.010099 149.101074 
L 368.686451 147.757548 
L 373.362802 146.407552 
L 378.039153 145.313533 
L 382.715505 144.16283 
L 387.391856 142.909032 
L 392.068207 141.880962 
L 396.744559 141.244999 
L 401.42091 140.27286 
L 406.097261 138.981123 
L 410.773613 137.940572 
L 415.449964 136.992914 
L 420.126315 135.789424 
L 424.802667 135.511336 
L 429.479018 134.710066 
L 434.155369 134.203363 
L 438.83172 133.587004 
L 443.508072 133.319098 
L 448.184423 133.482605 
L 452.860774 133.479394 
L 457.537126 133.780182 
L 462.213477 134.084612 
L 466.889828 134.384121 
L 471.56618 134.471646 
L 476.242531 134.951631 
L 480.918882 135.378578 
L 485.595234 135.250198 
L 490.271585 135.409693 
L 494.947936 135.819638 
L 499.624288 136.792975 
L 504.300639 138.124439 
L 508.97699 139.289788 
L 513.653341 140.814399 
L 518.329693 141.854509 
L 523.006044 143.109041 
L 527.682395 144.135857 
L 532.358747 145.736888 
L 537.035098 147.457754 
L 541.711449 148.997192 
L 546.387801 150.521415 
L 551.064152 152.311506 
L 555.740503 154.638428 
L 560.416855 157.218543 
L 565.093206 159.731593 
L 569.769557 161.766934 
L 574.445909 164.796469 
L 579.12226 167.21495 
L 583.798611 169.276506 
L 588.474962 171.838768 
L 593.151314 174.389286 
L 597.827665 177.355804 
L 602.504016 181.893873 
L 607.180368 186.172346 
L 611.856719 189.985949 
L 611.856719 133.028363 
L 611.856719 133.028363 
L 607.180368 130.808132 
L 602.504016 128.707225 
L 597.827665 126.955542 
L 593.151314 124.87631 
L 588.474962 123.221126 
L 583.798611 121.285519 
L 579.12226 119.583722 
L 574.445909 117.421472 
L 569.769557 115.314108 
L 565.093206 113.855898 
L 560.416855 111.860523 
L 555.740503 109.509259 
L 551.064152 107.506518 
L 546.387801 105.748848 
L 541.711449 104.349721 
L 537.035098 102.595467 
L 532.358747 100.384021 
L 527.682395 98.94322 
L 523.006044 97.481327 
L 518.329693 96.248441 
L 513.653341 94.436691 
L 508.97699 93.251245 
L 504.300639 91.618596 
L 499.624288 90.70779 
L 494.947936 90.057384 
L 490.271585 89.229089 
L 485.595234 87.909772 
L 480.918882 87.287654 
L 476.242531 86.273561 
L 471.56618 85.144143 
L 466.889828 84.798023 
L 462.213477 84.460593 
L 457.537126 84.075777 
L 452.860774 83.232933 
L 448.184423 82.796385 
L 443.508072 82.491376 
L 438.83172 81.93003 
L 434.155369 80.999238 
L 429.479018 81.392161 
L 424.802667 81.198664 
L 420.126315 81.113836 
L 415.449964 81.597154 
L 410.773613 81.742537 
L 406.097261 81.93246 
L 401.42091 82.531283 
L 396.744559 83.308142 
L 392.068207 84.121412 
L 387.391856 84.978211 
L 382.715505 85.955853 
L 378.039153 87.209962 
L 373.362802 88.138683 
L 368.686451 89.294608 
L 364.010099 90.592865 
L 359.333748 92.26954 
L 354.657397 93.804288 
L 349.981045 95.323884 
L 345.304694 96.967053 
L 340.628343 99.086378 
L 335.951992 101.183776 
L 331.27564 103.190415 
L 326.599289 105.489287 
L 321.922938 108.171071 
L 317.246586 110.715063 
L 312.570235 113.449312 
L 307.893884 116.11076 
L 303.217532 119.066066 
L 298.541181 121.855562 
L 293.86483 124.606384 
L 289.188478 128.098956 
L 284.512127 131.349577 
L 279.835776 134.613154 
L 275.159424 137.917627 
L 270.483073 141.25596 
L 265.806722 145.040618 
L 261.130371 148.661354 
L 256.454019 152.486704 
L 251.777668 156.434947 
L 247.101317 160.975302 
L 242.424965 164.848982 
L 237.748614 169.388929 
L 233.072263 173.966821 
L 228.395911 178.38433 
L 223.71956 182.720107 
L 219.043209 187.518624 
L 214.366857 192.769285 
L 209.690506 197.068994 
L 205.014155 201.963369 
L 200.337803 206.863036 
L 195.661452 211.591098 
L 190.985101 216.319751 
L 186.30875 221.189934 
L 181.632398 226.336184 
L 176.956047 231.470524 
L 172.279696 236.554267 
L 167.603344 241.494369 
L 162.926993 246.548218 
L 158.250642 251.351657 
L 153.57429 256.301036 
L 148.897939 260.87625 
z
" clip-path="url(#p62c4cb43c2)" style="fill: #a9a9a9; fill-opacity: 0.15"/>
   </g>
   <g id="matplotlib.axis_1">
    <g id="xtick_1">
     <g id="line2d_1">
      <defs>
       <path id="m705ab50ee9" d="M 0 0 
L 0 3.5 
" style="stroke: #000000; stroke-width: 0.8"/>
      </defs>
      <g>
       <use xlink:href="#m705ab50ee9" x="148.897939" y="546.487329" style="stroke: #000000; stroke-width: 0.8"/>
      </g>
     </g>
     <g id="text_1">
      <!-- 0 -->
      <g transform="translate(140.944814 572.483423) scale(0.25 -0.25)">
       <defs>
        <path id="DejaVuSans-30" d="M 2034 4250 
Q 1547 4250 1301 3770 
Q 1056 3291 1056 2328 
Q 1056 1369 1301 889 
Q 1547 409 2034 409 
Q 2525 409 2770 889 
Q 3016 1369 3016 2328 
Q 3016 3291 2770 3770 
Q 2525 4250 2034 4250 
z
M 2034 4750 
Q 2819 4750 3233 4129 
Q 3647 3509 3647 2328 
Q 3647 1150 3233 529 
Q 2819 -91 2034 -91 
Q 1250 -91 836 529 
Q 422 1150 422 2328 
Q 422 3509 836 4129 
Q 1250 4750 2034 4750 
z
" transform="scale(0.015625)"/>
       </defs>
       <use xlink:href="#DejaVuSans-30"/>
      </g>
     </g>
    </g>
    <g id="xtick_2">
     <g id="line2d_2">
      <g>
       <use xlink:href="#m705ab50ee9" x="242.020494" y="546.487329" style="stroke: #000000; stroke-width: 0.8"/>
      </g>
     </g>
     <g id="text_2">
      <!-- 20 -->
      <g transform="translate(226.114244 572.483423) scale(0.25 -0.25)">
       <defs>
        <path id="DejaVuSans-32" d="M 1228 531 
L 3431 531 
L 3431 0 
L 469 0 
L 469 531 
Q 828 903 1448 1529 
Q 2069 2156 2228 2338 
Q 2531 2678 2651 2914 
Q 2772 3150 2772 3378 
Q 2772 3750 2511 3984 
Q 2250 4219 1831 4219 
Q 1534 4219 1204 4116 
Q 875 4013 500 3803 
L 500 4441 
Q 881 4594 1212 4672 
Q 1544 4750 1819 4750 
Q 2544 4750 2975 4387 
Q 3406 4025 3406 3419 
Q 3406 3131 3298 2873 
Q 3191 2616 2906 2266 
Q 2828 2175 2409 1742 
Q 1991 1309 1228 531 
z
" transform="scale(0.015625)"/>
       </defs>
       <use xlink:href="#DejaVuSans-32"/>
       <use xlink:href="#DejaVuSans-30" x="63.623047"/>
      </g>
     </g>
    </g>
    <g id="xtick_3">
     <g id="line2d_3">
      <g>
       <use xlink:href="#m705ab50ee9" x="335.143048" y="546.487329" style="stroke: #000000; stroke-width: 0.8"/>
      </g>
     </g>
     <g id="text_3">
      <!-- 40 -->
      <g transform="translate(319.236798 572.483423) scale(0.25 -0.25)">
       <defs>
        <path id="DejaVuSans-34" d="M 2419 4116 
L 825 1625 
L 2419 1625 
L 2419 4116 
z
M 2253 4666 
L 3047 4666 
L 3047 1625 
L 3713 1625 
L 3713 1100 
L 3047 1100 
L 3047 0 
L 2419 0 
L 2419 1100 
L 313 1100 
L 313 1709 
L 2253 4666 
z
" transform="scale(0.015625)"/>
       </defs>
       <use xlink:href="#DejaVuSans-34"/>
       <use xlink:href="#DejaVuSans-30" x="63.623047"/>
      </g>
     </g>
    </g>
    <g id="xtick_4">
     <g id="line2d_4">
      <g>
       <use xlink:href="#m705ab50ee9" x="428.265603" y="546.487329" style="stroke: #000000; stroke-width: 0.8"/>
      </g>
     </g>
     <g id="text_4">
      <!-- 60 -->
      <g transform="translate(412.359353 572.483423) scale(0.25 -0.25)">
       <defs>
        <path id="DejaVuSans-36" d="M 2113 2584 
Q 1688 2584 1439 2293 
Q 1191 2003 1191 1497 
Q 1191 994 1439 701 
Q 1688 409 2113 409 
Q 2538 409 2786 701 
Q 3034 994 3034 1497 
Q 3034 2003 2786 2293 
Q 2538 2584 2113 2584 
z
M 3366 4563 
L 3366 3988 
Q 3128 4100 2886 4159 
Q 2644 4219 2406 4219 
Q 1781 4219 1451 3797 
Q 1122 3375 1075 2522 
Q 1259 2794 1537 2939 
Q 1816 3084 2150 3084 
Q 2853 3084 3261 2657 
Q 3669 2231 3669 1497 
Q 3669 778 3244 343 
Q 2819 -91 2113 -91 
Q 1303 -91 875 529 
Q 447 1150 447 2328 
Q 447 3434 972 4092 
Q 1497 4750 2381 4750 
Q 2619 4750 2861 4703 
Q 3103 4656 3366 4563 
z
" transform="scale(0.015625)"/>
       </defs>
       <use xlink:href="#DejaVuSans-36"/>
       <use xlink:href="#DejaVuSans-30" x="63.623047"/>
      </g>
     </g>
    </g>
    <g id="xtick_5">
     <g id="line2d_5">
      <g>
       <use xlink:href="#m705ab50ee9" x="521.388157" y="546.487329" style="stroke: #000000; stroke-width: 0.8"/>
      </g>
     </g>
     <g id="text_5">
      <!-- 80 -->
      <g transform="translate(505.481907 572.483423) scale(0.25 -0.25)">
       <defs>
        <path id="DejaVuSans-38" d="M 2034 2216 
Q 1584 2216 1326 1975 
Q 1069 1734 1069 1313 
Q 1069 891 1326 650 
Q 1584 409 2034 409 
Q 2484 409 2743 651 
Q 3003 894 3003 1313 
Q 3003 1734 2745 1975 
Q 2488 2216 2034 2216 
z
M 1403 2484 
Q 997 2584 770 2862 
Q 544 3141 544 3541 
Q 544 4100 942 4425 
Q 1341 4750 2034 4750 
Q 2731 4750 3128 4425 
Q 3525 4100 3525 3541 
Q 3525 3141 3298 2862 
Q 3072 2584 2669 2484 
Q 3125 2378 3379 2068 
Q 3634 1759 3634 1313 
Q 3634 634 3220 271 
Q 2806 -91 2034 -91 
Q 1263 -91 848 271 
Q 434 634 434 1313 
Q 434 1759 690 2068 
Q 947 2378 1403 2484 
z
M 1172 3481 
Q 1172 3119 1398 2916 
Q 1625 2713 2034 2713 
Q 2441 2713 2670 2916 
Q 2900 3119 2900 3481 
Q 2900 3844 2670 4047 
Q 2441 4250 2034 4250 
Q 1625 4250 1398 4047 
Q 1172 3844 1172 3481 
z
" transform="scale(0.015625)"/>
       </defs>
       <use xlink:href="#DejaVuSans-38"/>
       <use xlink:href="#DejaVuSans-30" x="63.623047"/>
      </g>
     </g>
    </g>
    <g id="xtick_6">
     <g id="line2d_6">
      <g>
       <use xlink:href="#m705ab50ee9" x="614.510712" y="546.487329" style="stroke: #000000; stroke-width: 0.8"/>
      </g>
     </g>
     <g id="text_6">
      <!-- 100 -->
      <g transform="translate(590.651337 572.483423) scale(0.25 -0.25)">
       <defs>
        <path id="DejaVuSans-31" d="M 794 531 
L 1825 531 
L 1825 4091 
L 703 3866 
L 703 4441 
L 1819 4666 
L 2450 4666 
L 2450 531 
L 3481 531 
L 3481 0 
L 794 0 
L 794 531 
z
" transform="scale(0.015625)"/>
       </defs>
       <use xlink:href="#DejaVuSans-31"/>
       <use xlink:href="#DejaVuSans-30" x="63.623047"/>
       <use xlink:href="#DejaVuSans-30" x="127.246094"/>
      </g>
     </g>
    </g>
    <g id="text_7">
     <!-- Relative Activity (%) -->
     <g transform="translate(228.296079 604.477954) scale(0.3 -0.3)">
      <defs>
       <path id="DejaVuSans-52" d="M 2841 2188 
Q 3044 2119 3236 1894 
Q 3428 1669 3622 1275 
L 4263 0 
L 3584 0 
L 2988 1197 
Q 2756 1666 2539 1819 
Q 2322 1972 1947 1972 
L 1259 1972 
L 1259 0 
L 628 0 
L 628 4666 
L 2053 4666 
Q 2853 4666 3247 4331 
Q 3641 3997 3641 3322 
Q 3641 2881 3436 2590 
Q 3231 2300 2841 2188 
z
M 1259 4147 
L 1259 2491 
L 2053 2491 
Q 2509 2491 2742 2702 
Q 2975 2913 2975 3322 
Q 2975 3731 2742 3939 
Q 2509 4147 2053 4147 
L 1259 4147 
z
" transform="scale(0.015625)"/>
       <path id="DejaVuSans-65" d="M 3597 1894 
L 3597 1613 
L 953 1613 
Q 991 1019 1311 708 
Q 1631 397 2203 397 
Q 2534 397 2845 478 
Q 3156 559 3463 722 
L 3463 178 
Q 3153 47 2828 -22 
Q 2503 -91 2169 -91 
Q 1331 -91 842 396 
Q 353 884 353 1716 
Q 353 2575 817 3079 
Q 1281 3584 2069 3584 
Q 2775 3584 3186 3129 
Q 3597 2675 3597 1894 
z
M 3022 2063 
Q 3016 2534 2758 2815 
Q 2500 3097 2075 3097 
Q 1594 3097 1305 2825 
Q 1016 2553 972 2059 
L 3022 2063 
z
" transform="scale(0.015625)"/>
       <path id="DejaVuSans-6c" d="M 603 4863 
L 1178 4863 
L 1178 0 
L 603 0 
L 603 4863 
z
" transform="scale(0.015625)"/>
       <path id="DejaVuSans-61" d="M 2194 1759 
Q 1497 1759 1228 1600 
Q 959 1441 959 1056 
Q 959 750 1161 570 
Q 1363 391 1709 391 
Q 2188 391 2477 730 
Q 2766 1069 2766 1631 
L 2766 1759 
L 2194 1759 
z
M 3341 1997 
L 3341 0 
L 2766 0 
L 2766 531 
Q 2569 213 2275 61 
Q 1981 -91 1556 -91 
Q 1019 -91 701 211 
Q 384 513 384 1019 
Q 384 1609 779 1909 
Q 1175 2209 1959 2209 
L 2766 2209 
L 2766 2266 
Q 2766 2663 2505 2880 
Q 2244 3097 1772 3097 
Q 1472 3097 1187 3025 
Q 903 2953 641 2809 
L 641 3341 
Q 956 3463 1253 3523 
Q 1550 3584 1831 3584 
Q 2591 3584 2966 3190 
Q 3341 2797 3341 1997 
z
" transform="scale(0.015625)"/>
       <path id="DejaVuSans-74" d="M 1172 4494 
L 1172 3500 
L 2356 3500 
L 2356 3053 
L 1172 3053 
L 1172 1153 
Q 1172 725 1289 603 
Q 1406 481 1766 481 
L 2356 481 
L 2356 0 
L 1766 0 
Q 1100 0 847 248 
Q 594 497 594 1153 
L 594 3053 
L 172 3053 
L 172 3500 
L 594 3500 
L 594 4494 
L 1172 4494 
z
" transform="scale(0.015625)"/>
       <path id="DejaVuSans-69" d="M 603 3500 
L 1178 3500 
L 1178 0 
L 603 0 
L 603 3500 
z
M 603 4863 
L 1178 4863 
L 1178 4134 
L 603 4134 
L 603 4863 
z
" transform="scale(0.015625)"/>
       <path id="DejaVuSans-76" d="M 191 3500 
L 800 3500 
L 1894 563 
L 2988 3500 
L 3597 3500 
L 2284 0 
L 1503 0 
L 191 3500 
z
" transform="scale(0.015625)"/>
       <path id="DejaVuSans-20" transform="scale(0.015625)"/>
       <path id="DejaVuSans-41" d="M 2188 4044 
L 1331 1722 
L 3047 1722 
L 2188 4044 
z
M 1831 4666 
L 2547 4666 
L 4325 0 
L 3669 0 
L 3244 1197 
L 1141 1197 
L 716 0 
L 50 0 
L 1831 4666 
z
" transform="scale(0.015625)"/>
       <path id="DejaVuSans-63" d="M 3122 3366 
L 3122 2828 
Q 2878 2963 2633 3030 
Q 2388 3097 2138 3097 
Q 1578 3097 1268 2742 
Q 959 2388 959 1747 
Q 959 1106 1268 751 
Q 1578 397 2138 397 
Q 2388 397 2633 464 
Q 2878 531 3122 666 
L 3122 134 
Q 2881 22 2623 -34 
Q 2366 -91 2075 -91 
Q 1284 -91 818 406 
Q 353 903 353 1747 
Q 353 2603 823 3093 
Q 1294 3584 2113 3584 
Q 2378 3584 2631 3529 
Q 2884 3475 3122 3366 
z
" transform="scale(0.015625)"/>
       <path id="DejaVuSans-79" d="M 2059 -325 
Q 1816 -950 1584 -1140 
Q 1353 -1331 966 -1331 
L 506 -1331 
L 506 -850 
L 844 -850 
Q 1081 -850 1212 -737 
Q 1344 -625 1503 -206 
L 1606 56 
L 191 3500 
L 800 3500 
L 1894 763 
L 2988 3500 
L 3597 3500 
L 2059 -325 
z
" transform="scale(0.015625)"/>
       <path id="DejaVuSans-28" d="M 1984 4856 
Q 1566 4138 1362 3434 
Q 1159 2731 1159 2009 
Q 1159 1288 1364 580 
Q 1569 -128 1984 -844 
L 1484 -844 
Q 1016 -109 783 600 
Q 550 1309 550 2009 
Q 550 2706 781 3412 
Q 1013 4119 1484 4856 
L 1984 4856 
z
" transform="scale(0.015625)"/>
       <path id="DejaVuSans-25" d="M 4653 2053 
Q 4381 2053 4226 1822 
Q 4072 1591 4072 1178 
Q 4072 772 4226 539 
Q 4381 306 4653 306 
Q 4919 306 5073 539 
Q 5228 772 5228 1178 
Q 5228 1588 5073 1820 
Q 4919 2053 4653 2053 
z
M 4653 2450 
Q 5147 2450 5437 2106 
Q 5728 1763 5728 1178 
Q 5728 594 5436 251 
Q 5144 -91 4653 -91 
Q 4153 -91 3862 251 
Q 3572 594 3572 1178 
Q 3572 1766 3864 2108 
Q 4156 2450 4653 2450 
z
M 1428 4353 
Q 1159 4353 1004 4120 
Q 850 3888 850 3481 
Q 850 3069 1003 2837 
Q 1156 2606 1428 2606 
Q 1700 2606 1854 2837 
Q 2009 3069 2009 3481 
Q 2009 3884 1853 4118 
Q 1697 4353 1428 4353 
z
M 4250 4750 
L 4750 4750 
L 1831 -91 
L 1331 -91 
L 4250 4750 
z
M 1428 4750 
Q 1922 4750 2215 4408 
Q 2509 4066 2509 3481 
Q 2509 2891 2217 2550 
Q 1925 2209 1428 2209 
Q 931 2209 642 2551 
Q 353 2894 353 3481 
Q 353 4063 643 4406 
Q 934 4750 1428 4750 
z
" transform="scale(0.015625)"/>
       <path id="DejaVuSans-29" d="M 513 4856 
L 1013 4856 
Q 1481 4119 1714 3412 
Q 1947 2706 1947 2009 
Q 1947 1309 1714 600 
Q 1481 -109 1013 -844 
L 513 -844 
Q 928 -128 1133 580 
Q 1338 1288 1338 2009 
Q 1338 2731 1133 3434 
Q 928 4138 513 4856 
z
" transform="scale(0.015625)"/>
      </defs>
      <use xlink:href="#DejaVuSans-52"/>
      <use xlink:href="#DejaVuSans-65" x="64.982422"/>
      <use xlink:href="#DejaVuSans-6c" x="126.505859"/>
      <use xlink:href="#DejaVuSans-61" x="154.289062"/>
      <use xlink:href="#DejaVuSans-74" x="215.568359"/>
      <use xlink:href="#DejaVuSans-69" x="254.777344"/>
      <use xlink:href="#DejaVuSans-76" x="282.560547"/>
      <use xlink:href="#DejaVuSans-65" x="341.740234"/>
      <use xlink:href="#DejaVuSans-20" x="403.263672"/>
      <use xlink:href="#DejaVuSans-41" x="435.050781"/>
      <use xlink:href="#DejaVuSans-63" x="501.708984"/>
      <use xlink:href="#DejaVuSans-74" x="556.689453"/>
      <use xlink:href="#DejaVuSans-69" x="595.898438"/>
      <use xlink:href="#DejaVuSans-76" x="623.681641"/>
      <use xlink:href="#DejaVuSans-69" x="682.861328"/>
      <use xlink:href="#DejaVuSans-74" x="710.644531"/>
      <use xlink:href="#DejaVuSans-79" x="749.853516"/>
      <use xlink:href="#DejaVuSans-20" x="809.033203"/>
      <use xlink:href="#DejaVuSans-28" x="840.820312"/>
      <use xlink:href="#DejaVuSans-25" x="879.833984"/>
      <use xlink:href="#DejaVuSans-29" x="974.853516"/>
     </g>
    </g>
   </g>
   <g id="matplotlib.axis_2">
    <g id="ytick_1">
     <g id="line2d_7">
      <defs>
       <path id="m1df4ceb234" d="M 0 0 
L -3.5 0 
" style="stroke: #000000; stroke-width: 0.8"/>
      </defs>
      <g>
       <use xlink:href="#m1df4ceb234" x="125.75" y="477.686355" style="stroke: #000000; stroke-width: 0.8"/>
      </g>
     </g>
     <g id="text_8">
      <!-- −1.22 -->
      <g transform="translate(42.136719 487.184402) scale(0.25 -0.25)">
       <defs>
        <path id="DejaVuSans-2212" d="M 678 2272 
L 4684 2272 
L 4684 1741 
L 678 1741 
L 678 2272 
z
" transform="scale(0.015625)"/>
        <path id="DejaVuSans-2e" d="M 684 794 
L 1344 794 
L 1344 0 
L 684 0 
L 684 794 
z
" transform="scale(0.015625)"/>
       </defs>
       <use xlink:href="#DejaVuSans-2212"/>
       <use xlink:href="#DejaVuSans-31" x="83.789062"/>
       <use xlink:href="#DejaVuSans-2e" x="147.412109"/>
       <use xlink:href="#DejaVuSans-32" x="179.199219"/>
       <use xlink:href="#DejaVuSans-32" x="242.822266"/>
      </g>
     </g>
    </g>
    <g id="ytick_2">
     <g id="line2d_8">
      <g>
       <use xlink:href="#m1df4ceb234" x="125.75" y="399.878209" style="stroke: #000000; stroke-width: 0.8"/>
      </g>
     </g>
     <g id="text_9">
      <!-- −1.20 -->
      <g transform="translate(42.136719 409.376256) scale(0.25 -0.25)">
       <use xlink:href="#DejaVuSans-2212"/>
       <use xlink:href="#DejaVuSans-31" x="83.789062"/>
       <use xlink:href="#DejaVuSans-2e" x="147.412109"/>
       <use xlink:href="#DejaVuSans-32" x="179.199219"/>
       <use xlink:href="#DejaVuSans-30" x="242.822266"/>
      </g>
     </g>
    </g>
    <g id="ytick_3">
     <g id="line2d_9">
      <g>
       <use xlink:href="#m1df4ceb234" x="125.75" y="322.070064" style="stroke: #000000; stroke-width: 0.8"/>
      </g>
     </g>
     <g id="text_10">
      <!-- −1.18 -->
      <g transform="translate(42.136719 331.568111) scale(0.25 -0.25)">
       <use xlink:href="#DejaVuSans-2212"/>
       <use xlink:href="#DejaVuSans-31" x="83.789062"/>
       <use xlink:href="#DejaVuSans-2e" x="147.412109"/>
       <use xlink:href="#DejaVuSans-31" x="179.199219"/>
       <use xlink:href="#DejaVuSans-38" x="242.822266"/>
      </g>
     </g>
    </g>
    <g id="ytick_4">
     <g id="line2d_10">
      <g>
       <use xlink:href="#m1df4ceb234" x="125.75" y="244.261918" style="stroke: #000000; stroke-width: 0.8"/>
      </g>
     </g>
     <g id="text_11">
      <!-- −1.16 -->
      <g transform="translate(42.136719 253.759965) scale(0.25 -0.25)">
       <use xlink:href="#DejaVuSans-2212"/>
       <use xlink:href="#DejaVuSans-31" x="83.789062"/>
       <use xlink:href="#DejaVuSans-2e" x="147.412109"/>
       <use xlink:href="#DejaVuSans-31" x="179.199219"/>
       <use xlink:href="#DejaVuSans-36" x="242.822266"/>
      </g>
     </g>
    </g>
    <g id="ytick_5">
     <g id="line2d_11">
      <g>
       <use xlink:href="#m1df4ceb234" x="125.75" y="166.453773" style="stroke: #000000; stroke-width: 0.8"/>
      </g>
     </g>
     <g id="text_12">
      <!-- −1.14 -->
      <g transform="translate(42.136719 175.95182) scale(0.25 -0.25)">
       <use xlink:href="#DejaVuSans-2212"/>
       <use xlink:href="#DejaVuSans-31" x="83.789062"/>
       <use xlink:href="#DejaVuSans-2e" x="147.412109"/>
       <use xlink:href="#DejaVuSans-31" x="179.199219"/>
       <use xlink:href="#DejaVuSans-34" x="242.822266"/>
      </g>
     </g>
    </g>
    <g id="ytick_6">
     <g id="line2d_12">
      <g>
       <use xlink:href="#m1df4ceb234" x="125.75" y="88.645627" style="stroke: #000000; stroke-width: 0.8"/>
      </g>
     </g>
     <g id="text_13">
      <!-- −1.12 -->
      <g transform="translate(42.136719 98.143674) scale(0.25 -0.25)">
       <use xlink:href="#DejaVuSans-2212"/>
       <use xlink:href="#DejaVuSans-31" x="83.789062"/>
       <use xlink:href="#DejaVuSans-2e" x="147.412109"/>
       <use xlink:href="#DejaVuSans-31" x="179.199219"/>
       <use xlink:href="#DejaVuSans-32" x="242.822266"/>
      </g>
     </g>
    </g>
    <g id="text_14">
     <!-- ESM-IF1 Score -->
     <g transform="translate(31.897656 398.585) rotate(-90) scale(0.3 -0.3)">
      <defs>
       <path id="DejaVuSans-45" d="M 628 4666 
L 3578 4666 
L 3578 4134 
L 1259 4134 
L 1259 2753 
L 3481 2753 
L 3481 2222 
L 1259 2222 
L 1259 531 
L 3634 531 
L 3634 0 
L 628 0 
L 628 4666 
z
" transform="scale(0.015625)"/>
       <path id="DejaVuSans-53" d="M 3425 4513 
L 3425 3897 
Q 3066 4069 2747 4153 
Q 2428 4238 2131 4238 
Q 1616 4238 1336 4038 
Q 1056 3838 1056 3469 
Q 1056 3159 1242 3001 
Q 1428 2844 1947 2747 
L 2328 2669 
Q 3034 2534 3370 2195 
Q 3706 1856 3706 1288 
Q 3706 609 3251 259 
Q 2797 -91 1919 -91 
Q 1588 -91 1214 -16 
Q 841 59 441 206 
L 441 856 
Q 825 641 1194 531 
Q 1563 422 1919 422 
Q 2459 422 2753 634 
Q 3047 847 3047 1241 
Q 3047 1584 2836 1778 
Q 2625 1972 2144 2069 
L 1759 2144 
Q 1053 2284 737 2584 
Q 422 2884 422 3419 
Q 422 4038 858 4394 
Q 1294 4750 2059 4750 
Q 2388 4750 2728 4690 
Q 3069 4631 3425 4513 
z
" transform="scale(0.015625)"/>
       <path id="DejaVuSans-4d" d="M 628 4666 
L 1569 4666 
L 2759 1491 
L 3956 4666 
L 4897 4666 
L 4897 0 
L 4281 0 
L 4281 4097 
L 3078 897 
L 2444 897 
L 1241 4097 
L 1241 0 
L 628 0 
L 628 4666 
z
" transform="scale(0.015625)"/>
       <path id="DejaVuSans-2d" d="M 313 2009 
L 1997 2009 
L 1997 1497 
L 313 1497 
L 313 2009 
z
" transform="scale(0.015625)"/>
       <path id="DejaVuSans-49" d="M 628 4666 
L 1259 4666 
L 1259 0 
L 628 0 
L 628 4666 
z
" transform="scale(0.015625)"/>
       <path id="DejaVuSans-46" d="M 628 4666 
L 3309 4666 
L 3309 4134 
L 1259 4134 
L 1259 2759 
L 3109 2759 
L 3109 2228 
L 1259 2228 
L 1259 0 
L 628 0 
L 628 4666 
z
" transform="scale(0.015625)"/>
       <path id="DejaVuSans-6f" d="M 1959 3097 
Q 1497 3097 1228 2736 
Q 959 2375 959 1747 
Q 959 1119 1226 758 
Q 1494 397 1959 397 
Q 2419 397 2687 759 
Q 2956 1122 2956 1747 
Q 2956 2369 2687 2733 
Q 2419 3097 1959 3097 
z
M 1959 3584 
Q 2709 3584 3137 3096 
Q 3566 2609 3566 1747 
Q 3566 888 3137 398 
Q 2709 -91 1959 -91 
Q 1206 -91 779 398 
Q 353 888 353 1747 
Q 353 2609 779 3096 
Q 1206 3584 1959 3584 
z
" transform="scale(0.015625)"/>
       <path id="DejaVuSans-72" d="M 2631 2963 
Q 2534 3019 2420 3045 
Q 2306 3072 2169 3072 
Q 1681 3072 1420 2755 
Q 1159 2438 1159 1844 
L 1159 0 
L 581 0 
L 581 3500 
L 1159 3500 
L 1159 2956 
Q 1341 3275 1631 3429 
Q 1922 3584 2338 3584 
Q 2397 3584 2469 3576 
Q 2541 3569 2628 3553 
L 2631 2963 
z
" transform="scale(0.015625)"/>
      </defs>
      <use xlink:href="#DejaVuSans-45"/>
      <use xlink:href="#DejaVuSans-53" x="63.183594"/>
      <use xlink:href="#DejaVuSans-4d" x="126.660156"/>
      <use xlink:href="#DejaVuSans-2d" x="212.939453"/>
      <use xlink:href="#DejaVuSans-49" x="249.023438"/>
      <use xlink:href="#DejaVuSans-46" x="278.515625"/>
      <use xlink:href="#DejaVuSans-31" x="336.035156"/>
      <use xlink:href="#DejaVuSans-20" x="399.658203"/>
      <use xlink:href="#DejaVuSans-53" x="431.445312"/>
      <use xlink:href="#DejaVuSans-63" x="494.921875"/>
      <use xlink:href="#DejaVuSans-6f" x="549.902344"/>
      <use xlink:href="#DejaVuSans-72" x="611.083984"/>
      <use xlink:href="#DejaVuSans-65" x="649.947266"/>
     </g>
    </g>
   </g>
   <g id="line2d_13">
    <path d="M 148.897939 274.583304 
L 153.57429 269.476539 
L 158.250642 264.4502 
L 162.926993 259.504287 
L 167.603344 254.638801 
L 172.279696 249.853741 
L 176.956047 245.149107 
L 181.632398 240.5249 
L 186.30875 235.981119 
L 190.985101 231.517764 
L 195.661452 227.134836 
L 200.337803 222.832334 
L 205.014155 218.610258 
L 209.690506 214.468609 
L 214.366857 210.407386 
L 219.043209 206.426589 
L 223.71956 202.526219 
L 228.395911 198.706275 
L 233.072263 194.966757 
L 237.748614 191.307666 
L 242.424965 187.729001 
L 247.101317 184.230762 
L 251.777668 180.81295 
L 256.454019 177.475563 
L 261.130371 174.218604 
L 265.806722 171.04207 
L 270.483073 167.945963 
L 275.159424 164.930282 
L 279.835776 161.995028 
L 284.512127 159.1402 
L 289.188478 156.365798 
L 293.86483 153.671822 
L 298.541181 151.058273 
L 303.217532 148.52515 
L 307.893884 146.072454 
L 312.570235 143.700184 
L 317.246586 141.40834 
L 321.922938 139.196922 
L 326.599289 137.065931 
L 331.27564 135.015366 
L 335.951992 133.045228 
L 340.628343 131.155516 
L 345.304694 129.34623 
L 349.981045 127.61737 
L 354.657397 125.968937 
L 359.333748 124.40093 
L 364.010099 122.913349 
L 368.686451 121.506195 
L 373.362802 120.179467 
L 378.039153 118.933165 
L 382.715505 117.76729 
L 387.391856 116.681841 
L 392.068207 115.676819 
L 396.744559 114.752222 
L 401.42091 113.908052 
L 406.097261 113.144309 
L 410.773613 112.460991 
L 415.449964 111.8581 
L 420.126315 111.335635 
L 424.802667 110.893597 
L 429.479018 110.531985 
L 434.155369 110.250799 
L 438.83172 110.05004 
L 443.508072 109.929707 
L 448.184423 109.8898 
L 452.860774 109.93032 
L 457.537126 110.051266 
L 462.213477 110.252638 
L 466.889828 110.534436 
L 471.56618 110.896661 
L 476.242531 111.339313 
L 480.918882 111.86239 
L 485.595234 112.465894 
L 490.271585 113.149824 
L 494.947936 113.914181 
L 499.624288 114.758963 
L 504.300639 115.684173 
L 508.97699 116.689808 
L 513.653341 117.77587 
L 518.329693 118.942358 
L 523.006044 120.189273 
L 527.682395 121.516613 
L 532.358747 122.924381 
L 537.035098 124.412574 
L 541.711449 125.981194 
L 546.387801 127.63024 
L 551.064152 129.359712 
L 555.740503 131.169611 
L 560.416855 133.059936 
L 565.093206 135.030687 
L 569.769557 137.081865 
L 574.445909 139.213469 
L 579.12226 141.4255 
L 583.798611 143.717956 
L 588.474962 146.090839 
L 593.151314 148.544149 
L 597.827665 151.077884 
L 602.504016 153.692046 
L 607.180368 156.386635 
L 611.856719 159.161649 
" clip-path="url(#p62c4cb43c2)" style="fill: none; stroke: #a9a9a9; stroke-width: 2.25; stroke-linecap: square"/>
   </g>
   <g id="patch_3">
    <path d="M 125.75 546.487329 
L 125.75 37.232671 
" style="fill: none; stroke: #000000; stroke-width: 0.8; stroke-linejoin: miter; stroke-linecap: square"/>
   </g>
   <g id="patch_4">
    <path d="M 635.004658 546.487329 
L 635.004658 37.232671 
" style="fill: none; stroke: #000000; stroke-width: 0.8; stroke-linejoin: miter; stroke-linecap: square"/>
   </g>
   <g id="patch_5">
    <path d="M 125.75 546.487329 
L 635.004658 546.487329 
" style="fill: none; stroke: #000000; stroke-width: 0.8; stroke-linejoin: miter; stroke-linecap: square"/>
   </g>
   <g id="patch_6">
    <path d="M 125.75 37.232671 
L 635.004658 37.232671 
" style="fill: none; stroke: #000000; stroke-width: 0.8; stroke-linejoin: miter; stroke-linecap: square"/>
   </g>
   <g id="legend_1">
    <g id="patch_7">
     <path d="M 323.604658 531.487329 
L 614.004658 531.487329 
Q 620.004658 531.487329 620.004658 525.487329 
L 620.004658 440.418579 
Q 620.004658 434.418579 614.004658 434.418579 
L 323.604658 434.418579 
Q 317.604658 434.418579 317.604658 440.418579 
L 317.604658 525.487329 
Q 317.604658 531.487329 323.604658 531.487329 
z
" style="fill: #ffffff; opacity: 0.7; stroke: #cccccc; stroke-linejoin: miter"/>
    </g>
    <g id="patch_8">
     <path d="M 329.604658 469.213892 
L 329.604658 469.213892 
L 329.604658 448.213892 
L 329.604658 448.213892 
L 329.604658 469.213892 
z
" style="fill: none; opacity: 0"/>
    </g>
    <g id="text_15">
     <!-- Met1 = 0.65$\pm$0.10 -->
     <g transform="translate(329.604658 469.213892) scale(0.3 -0.3)">
      <defs>
       <path id="DejaVuSans-3d" d="M 678 2906 
L 4684 2906 
L 4684 2381 
L 678 2381 
L 678 2906 
z
M 678 1631 
L 4684 1631 
L 4684 1100 
L 678 1100 
L 678 1631 
z
" transform="scale(0.015625)"/>
       <path id="DejaVuSans-35" d="M 691 4666 
L 3169 4666 
L 3169 4134 
L 1269 4134 
L 1269 2991 
Q 1406 3038 1543 3061 
Q 1681 3084 1819 3084 
Q 2600 3084 3056 2656 
Q 3513 2228 3513 1497 
Q 3513 744 3044 326 
Q 2575 -91 1722 -91 
Q 1428 -91 1123 -41 
Q 819 9 494 109 
L 494 744 
Q 775 591 1075 516 
Q 1375 441 1709 441 
Q 2250 441 2565 725 
Q 2881 1009 2881 1497 
Q 2881 1984 2565 2268 
Q 2250 2553 1709 2553 
Q 1456 2553 1204 2497 
Q 953 2441 691 2322 
L 691 4666 
z
" transform="scale(0.015625)"/>
       <path id="DejaVuSans-b1" d="M 2944 4013 
L 2944 2803 
L 4684 2803 
L 4684 2272 
L 2944 2272 
L 2944 1063 
L 2419 1063 
L 2419 2272 
L 678 2272 
L 678 2803 
L 2419 2803 
L 2419 4013 
L 2944 4013 
z
M 678 531 
L 4684 531 
L 4684 0 
L 678 0 
L 678 531 
z
" transform="scale(0.015625)"/>
      </defs>
      <use xlink:href="#DejaVuSans-4d" transform="translate(0 0.78125)"/>
      <use xlink:href="#DejaVuSans-65" transform="translate(86.279297 0.78125)"/>
      <use xlink:href="#DejaVuSans-74" transform="translate(147.802734 0.78125)"/>
      <use xlink:href="#DejaVuSans-31" transform="translate(187.011719 0.78125)"/>
      <use xlink:href="#DejaVuSans-20" transform="translate(250.634766 0.78125)"/>
      <use xlink:href="#DejaVuSans-3d" transform="translate(282.421875 0.78125)"/>
      <use xlink:href="#DejaVuSans-20" transform="translate(366.210938 0.78125)"/>
      <use xlink:href="#DejaVuSans-30" transform="translate(397.998047 0.78125)"/>
      <use xlink:href="#DejaVuSans-2e" transform="translate(461.621094 0.78125)"/>
      <use xlink:href="#DejaVuSans-36" transform="translate(493.408203 0.78125)"/>
      <use xlink:href="#DejaVuSans-35" transform="translate(557.03125 0.78125)"/>
      <use xlink:href="#DejaVuSans-b1" transform="translate(620.654297 0.78125)"/>
      <use xlink:href="#DejaVuSans-30" transform="translate(704.443359 0.78125)"/>
      <use xlink:href="#DejaVuSans-2e" transform="translate(768.066406 0.78125)"/>
      <use xlink:href="#DejaVuSans-31" transform="translate(799.853516 0.78125)"/>
      <use xlink:href="#DejaVuSans-30" transform="translate(863.476562 0.78125)"/>
     </g>
    </g>
    <g id="patch_9">
     <path d="M 329.604658 513.248267 
L 329.604658 513.248267 
L 329.604658 492.248267 
L 329.604658 492.248267 
L 329.604658 513.248267 
z
" style="fill: none; opacity: 0"/>
    </g>
    <g id="text_16">
     <!-- Met2 = 0.47$\pm$0.16 -->
     <g transform="translate(329.604658 513.248267) scale(0.3 -0.3)">
      <defs>
       <path id="DejaVuSans-37" d="M 525 4666 
L 3525 4666 
L 3525 4397 
L 1831 0 
L 1172 0 
L 2766 4134 
L 525 4134 
L 525 4666 
z
" transform="scale(0.015625)"/>
      </defs>
      <use xlink:href="#DejaVuSans-4d" transform="translate(0 0.78125)"/>
      <use xlink:href="#DejaVuSans-65" transform="translate(86.279297 0.78125)"/>
      <use xlink:href="#DejaVuSans-74" transform="translate(147.802734 0.78125)"/>
      <use xlink:href="#DejaVuSans-32" transform="translate(187.011719 0.78125)"/>
      <use xlink:href="#DejaVuSans-20" transform="translate(250.634766 0.78125)"/>
      <use xlink:href="#DejaVuSans-3d" transform="translate(282.421875 0.78125)"/>
      <use xlink:href="#DejaVuSans-20" transform="translate(366.210938 0.78125)"/>
      <use xlink:href="#DejaVuSans-30" transform="translate(397.998047 0.78125)"/>
      <use xlink:href="#DejaVuSans-2e" transform="translate(461.621094 0.78125)"/>
      <use xlink:href="#DejaVuSans-34" transform="translate(493.408203 0.78125)"/>
      <use xlink:href="#DejaVuSans-37" transform="translate(557.03125 0.78125)"/>
      <use xlink:href="#DejaVuSans-b1" transform="translate(620.654297 0.78125)"/>
      <use xlink:href="#DejaVuSans-30" transform="translate(704.443359 0.78125)"/>
      <use xlink:href="#DejaVuSans-2e" transform="translate(768.066406 0.78125)"/>
      <use xlink:href="#DejaVuSans-31" transform="translate(799.853516 0.78125)"/>
      <use xlink:href="#DejaVuSans-36" transform="translate(863.476562 0.78125)"/>
     </g>
    </g>
   </g>
  </g>
 </g>
 <defs>
  <clipPath id="p62c4cb43c2">
   <rect x="125.75" y="37.232671" width="509.254658" height="509.254658"/>
  </clipPath>
 </defs>
</svg>
