<?xml version="1.0" encoding="utf-8" standalone="no"?>
<!DOCTYPE svg PUBLIC "-//W3C//DTD SVG 1.1//EN"
  "http://www.w3.org/Graphics/SVG/1.1/DTD/svg11.dtd">
<svg xmlns:xlink="http://www.w3.org/1999/xlink" width="648pt" height="648pt" viewBox="0 0 648 648" xmlns="http://www.w3.org/2000/svg" version="1.1">
 <metadata>
  <rdf:RDF xmlns:dc="http://purl.org/dc/elements/1.1/" xmlns:cc="http://creativecommons.org/ns#" xmlns:rdf="http://www.w3.org/1999/02/22-rdf-syntax-ns#">
   <cc:Work>
    <dc:type rdf:resource="http://purl.org/dc/dcmitype/StillImage"/>
    <dc:date>2025-01-24T16:24:10.045854</dc:date>
    <dc:format>image/svg+xml</dc:format>
    <dc:creator>
     <cc:Agent>
      <dc:title>Matplotlib v3.7.2, https://matplotlib.org/</dc:title>
     </cc:Agent>
    </dc:creator>
   </cc:Work>
  </rdf:RDF>
 </metadata>
 <defs>
  <style type="text/css">*{stroke-linejoin: round; stroke-linecap: butt}</style>
 </defs>
 <g id="figure_1">
  <g id="patch_1">
   <path d="M 0 648 
L 648 648 
L 648 0 
L 0 0 
z
" style="fill: #ffffff"/>
  </g>
  <g id="axes_1">
   <g id="patch_2">
    <path d="M 125.75 546.487329 
L 635.004658 546.487329 
L 635.004658 37.232671 
L 125.75 37.232671 
z
" style="fill: #ffffff"/>
   </g>
   <g id="PathCollection_1">
    <defs>
     <path id="m176e0f7de4" d="M 0 8.660254 
C 2.296726 8.660254 4.499694 7.747755 6.123724 6.123724 
C 7.747755 4.499694 8.660254 2.296726 8.660254 0 
C 8.660254 -2.296726 7.747755 -4.499694 6.123724 -6.123724 
C 4.499694 -7.747755 2.296726 -8.660254 0 -8.660254 
C -2.296726 -8.660254 -4.499694 -7.747755 -6.123724 -6.123724 
C -7.747755 -4.499694 -8.660254 -2.296726 -8.660254 0 
C -8.660254 2.296726 -7.747755 4.499694 -6.123724 6.123724 
C -4.499694 7.747755 -2.296726 8.660254 0 8.660254 
z
" style="stroke: #000000; stroke-opacity: 0.8"/>
    </defs>
    <g clip-path="url(#pd74ed0d1a5)">
     <use xlink:href="#m176e0f7de4" x="224.839382" y="117.917791" style="fill: #516f84; fill-opacity: 0.8; stroke: #000000; stroke-opacity: 0.8"/>
     <use xlink:href="#m176e0f7de4" x="295.007227" y="349.902434" style="fill: #516f84; fill-opacity: 0.8; stroke: #000000; stroke-opacity: 0.8"/>
     <use xlink:href="#m176e0f7de4" x="209.287916" y="293.3891" style="fill: #516f84; fill-opacity: 0.8; stroke: #000000; stroke-opacity: 0.8"/>
     <use xlink:href="#m176e0f7de4" x="170.316127" y="194.159349" style="fill: #516f84; fill-opacity: 0.8; stroke: #000000; stroke-opacity: 0.8"/>
     <use xlink:href="#m176e0f7de4" x="160.072646" y="60.38061" style="fill: #516f84; fill-opacity: 0.8; stroke: #000000; stroke-opacity: 0.8"/>
     <use xlink:href="#m176e0f7de4" x="156.859917" y="88.998291" style="fill: #516f84; fill-opacity: 0.8; stroke: #000000; stroke-opacity: 0.8"/>
     <use xlink:href="#m176e0f7de4" x="611.856719" y="249.317004" style="fill: #516f84; fill-opacity: 0.8; stroke: #000000; stroke-opacity: 0.8"/>
     <use xlink:href="#m176e0f7de4" x="148.897939" y="357.781384" style="fill: #516f84; fill-opacity: 0.8; stroke: #000000; stroke-opacity: 0.8"/>
     <use xlink:href="#m176e0f7de4" x="148.897939" y="210.812699" style="fill: #516f84; fill-opacity: 0.8; stroke: #000000; stroke-opacity: 0.8"/>
     <use xlink:href="#m176e0f7de4" x="148.897939" y="168.266367" style="fill: #516f84; fill-opacity: 0.8; stroke: #000000; stroke-opacity: 0.8"/>
     <use xlink:href="#m176e0f7de4" x="192.618978" y="240.674337" style="fill: #516f84; fill-opacity: 0.8; stroke: #000000; stroke-opacity: 0.8"/>
     <use xlink:href="#m176e0f7de4" x="595.886201" y="312.280238" style="fill: #516f84; fill-opacity: 0.8; stroke: #000000; stroke-opacity: 0.8"/>
     <use xlink:href="#m176e0f7de4" x="148.897939" y="310.619405" style="fill: #516f84; fill-opacity: 0.8; stroke: #000000; stroke-opacity: 0.8"/>
     <use xlink:href="#m176e0f7de4" x="148.897939" y="135.083064" style="fill: #516f84; fill-opacity: 0.8; stroke: #000000; stroke-opacity: 0.8"/>
     <use xlink:href="#m176e0f7de4" x="148.897939" y="212.782019" style="fill: #516f84; fill-opacity: 0.8; stroke: #000000; stroke-opacity: 0.8"/>
     <use xlink:href="#m176e0f7de4" x="148.897939" y="215.416674" style="fill: #516f84; fill-opacity: 0.8; stroke: #000000; stroke-opacity: 0.8"/>
     <use xlink:href="#m176e0f7de4" x="499.445504" y="224.276116" style="fill: #516f84; fill-opacity: 0.8; stroke: #000000; stroke-opacity: 0.8"/>
     <use xlink:href="#m176e0f7de4" x="148.897939" y="310.651088" style="fill: #516f84; fill-opacity: 0.8; stroke: #000000; stroke-opacity: 0.8"/>
     <use xlink:href="#m176e0f7de4" x="376.352433" y="191.838185" style="fill: #516f84; fill-opacity: 0.8; stroke: #000000; stroke-opacity: 0.8"/>
     <use xlink:href="#m176e0f7de4" x="148.897939" y="353.669323" style="fill: #516f84; fill-opacity: 0.8; stroke: #000000; stroke-opacity: 0.8"/>
     <use xlink:href="#m176e0f7de4" x="148.897939" y="285.992058" style="fill: #516f84; fill-opacity: 0.8; stroke: #000000; stroke-opacity: 0.8"/>
     <use xlink:href="#m176e0f7de4" x="156.925746" y="173.020417" style="fill: #516f84; fill-opacity: 0.8; stroke: #000000; stroke-opacity: 0.8"/>
     <use xlink:href="#m176e0f7de4" x="595.779157" y="188.791658" style="fill: #516f84; fill-opacity: 0.8; stroke: #000000; stroke-opacity: 0.8"/>
     <use xlink:href="#m176e0f7de4" x="148.897939" y="523.33939" style="fill: #516f84; fill-opacity: 0.8; stroke: #000000; stroke-opacity: 0.8"/>
     <use xlink:href="#m176e0f7de4" x="234.527853" y="365.396869" style="fill: #516f84; fill-opacity: 0.8; stroke: #000000; stroke-opacity: 0.8"/>
     <use xlink:href="#m176e0f7de4" x="148.897939" y="260.057388" style="fill: #516f84; fill-opacity: 0.8; stroke: #000000; stroke-opacity: 0.8"/>
     <use xlink:href="#m176e0f7de4" x="151.573876" y="310.320922" style="fill: #516f84; fill-opacity: 0.8; stroke: #000000; stroke-opacity: 0.8"/>
     <use xlink:href="#m176e0f7de4" x="175.657292" y="133.335521" style="fill: #516f84; fill-opacity: 0.8; stroke: #000000; stroke-opacity: 0.8"/>
     <use xlink:href="#m176e0f7de4" x="148.897939" y="238.673334" style="fill: #516f84; fill-opacity: 0.8; stroke: #000000; stroke-opacity: 0.8"/>
     <use xlink:href="#m176e0f7de4" x="166.755246" y="208.739993" style="fill: #516f84; fill-opacity: 0.8; stroke: #000000; stroke-opacity: 0.8"/>
     <use xlink:href="#m176e0f7de4" x="148.897939" y="321.739981" style="fill: #516f84; fill-opacity: 0.8; stroke: #000000; stroke-opacity: 0.8"/>
     <use xlink:href="#m176e0f7de4" x="523.240039" y="311.609902" style="fill: #516f84; fill-opacity: 0.8; stroke: #000000; stroke-opacity: 0.8"/>
     <use xlink:href="#m176e0f7de4" x="590.700951" y="233.550766" style="fill: #516f84; fill-opacity: 0.8; stroke: #000000; stroke-opacity: 0.8"/>
     <use xlink:href="#m176e0f7de4" x="554.986356" y="279.823966" style="fill: #516f84; fill-opacity: 0.8; stroke: #000000; stroke-opacity: 0.8"/>
     <use xlink:href="#m176e0f7de4" x="148.897939" y="197.439327" style="fill: #516f84; fill-opacity: 0.8; stroke: #000000; stroke-opacity: 0.8"/>
     <use xlink:href="#m176e0f7de4" x="148.897939" y="249.050203" style="fill: #516f84; fill-opacity: 0.8; stroke: #000000; stroke-opacity: 0.8"/>
     <use xlink:href="#m176e0f7de4" x="154.188995" y="353.007324" style="fill: #516f84; fill-opacity: 0.8; stroke: #000000; stroke-opacity: 0.8"/>
     <use xlink:href="#m176e0f7de4" x="148.897939" y="107.210756" style="fill: #516f84; fill-opacity: 0.8; stroke: #000000; stroke-opacity: 0.8"/>
     <use xlink:href="#m176e0f7de4" x="156.834518" y="423.159163" style="fill: #516f84; fill-opacity: 0.8; stroke: #000000; stroke-opacity: 0.8"/>
     <use xlink:href="#m176e0f7de4" x="148.897939" y="185.363272" style="fill: #516f84; fill-opacity: 0.8; stroke: #000000; stroke-opacity: 0.8"/>
    </g>
   </g>
   <g id="PathCollection_2">
    <defs>
     <path id="m0f4980b8a6" d="M 0 0 
C 0 0 0 0 0 0 
C 0 0 0 0 0 0 
C 0 0 0 0 0 0 
C 0 0 0 0 0 0 
C 0 0 0 0 0 0 
C 0 0 0 0 0 0 
C 0 0 0 0 0 0 
C 0 0 0 0 0 0 
z
" style="stroke: #a9a9a9; stroke-opacity: 0.8"/>
    </defs>
    <g clip-path="url(#pd74ed0d1a5)">
     <use xlink:href="#m0f4980b8a6" x="224.839382" y="117.917791" style="fill: #a9a9a9; fill-opacity: 0.8; stroke: #a9a9a9; stroke-opacity: 0.8"/>
     <use xlink:href="#m0f4980b8a6" x="295.007227" y="349.902434" style="fill: #a9a9a9; fill-opacity: 0.8; stroke: #a9a9a9; stroke-opacity: 0.8"/>
     <use xlink:href="#m0f4980b8a6" x="209.287916" y="293.3891" style="fill: #a9a9a9; fill-opacity: 0.8; stroke: #a9a9a9; stroke-opacity: 0.8"/>
     <use xlink:href="#m0f4980b8a6" x="170.316127" y="194.159349" style="fill: #a9a9a9; fill-opacity: 0.8; stroke: #a9a9a9; stroke-opacity: 0.8"/>
     <use xlink:href="#m0f4980b8a6" x="160.072646" y="60.38061" style="fill: #a9a9a9; fill-opacity: 0.8; stroke: #a9a9a9; stroke-opacity: 0.8"/>
     <use xlink:href="#m0f4980b8a6" x="156.859917" y="88.998291" style="fill: #a9a9a9; fill-opacity: 0.8; stroke: #a9a9a9; stroke-opacity: 0.8"/>
     <use xlink:href="#m0f4980b8a6" x="611.856719" y="249.317004" style="fill: #a9a9a9; fill-opacity: 0.8; stroke: #a9a9a9; stroke-opacity: 0.8"/>
     <use xlink:href="#m0f4980b8a6" x="148.897939" y="357.781384" style="fill: #a9a9a9; fill-opacity: 0.8; stroke: #a9a9a9; stroke-opacity: 0.8"/>
     <use xlink:href="#m0f4980b8a6" x="148.897939" y="210.812699" style="fill: #a9a9a9; fill-opacity: 0.8; stroke: #a9a9a9; stroke-opacity: 0.8"/>
     <use xlink:href="#m0f4980b8a6" x="148.897939" y="168.266367" style="fill: #a9a9a9; fill-opacity: 0.8; stroke: #a9a9a9; stroke-opacity: 0.8"/>
     <use xlink:href="#m0f4980b8a6" x="192.618978" y="240.674337" style="fill: #a9a9a9; fill-opacity: 0.8; stroke: #a9a9a9; stroke-opacity: 0.8"/>
     <use xlink:href="#m0f4980b8a6" x="595.886201" y="312.280238" style="fill: #a9a9a9; fill-opacity: 0.8; stroke: #a9a9a9; stroke-opacity: 0.8"/>
     <use xlink:href="#m0f4980b8a6" x="148.897939" y="310.619405" style="fill: #a9a9a9; fill-opacity: 0.8; stroke: #a9a9a9; stroke-opacity: 0.8"/>
     <use xlink:href="#m0f4980b8a6" x="148.897939" y="135.083064" style="fill: #a9a9a9; fill-opacity: 0.8; stroke: #a9a9a9; stroke-opacity: 0.8"/>
     <use xlink:href="#m0f4980b8a6" x="148.897939" y="212.782019" style="fill: #a9a9a9; fill-opacity: 0.8; stroke: #a9a9a9; stroke-opacity: 0.8"/>
     <use xlink:href="#m0f4980b8a6" x="148.897939" y="215.416674" style="fill: #a9a9a9; fill-opacity: 0.8; stroke: #a9a9a9; stroke-opacity: 0.8"/>
     <use xlink:href="#m0f4980b8a6" x="499.445504" y="224.276116" style="fill: #a9a9a9; fill-opacity: 0.8; stroke: #a9a9a9; stroke-opacity: 0.8"/>
     <use xlink:href="#m0f4980b8a6" x="148.897939" y="310.651088" style="fill: #a9a9a9; fill-opacity: 0.8; stroke: #a9a9a9; stroke-opacity: 0.8"/>
     <use xlink:href="#m0f4980b8a6" x="376.352433" y="191.838185" style="fill: #a9a9a9; fill-opacity: 0.8; stroke: #a9a9a9; stroke-opacity: 0.8"/>
     <use xlink:href="#m0f4980b8a6" x="148.897939" y="353.669323" style="fill: #a9a9a9; fill-opacity: 0.8; stroke: #a9a9a9; stroke-opacity: 0.8"/>
     <use xlink:href="#m0f4980b8a6" x="148.897939" y="285.992058" style="fill: #a9a9a9; fill-opacity: 0.8; stroke: #a9a9a9; stroke-opacity: 0.8"/>
     <use xlink:href="#m0f4980b8a6" x="156.925746" y="173.020417" style="fill: #a9a9a9; fill-opacity: 0.8; stroke: #a9a9a9; stroke-opacity: 0.8"/>
     <use xlink:href="#m0f4980b8a6" x="595.779157" y="188.791658" style="fill: #a9a9a9; fill-opacity: 0.8; stroke: #a9a9a9; stroke-opacity: 0.8"/>
     <use xlink:href="#m0f4980b8a6" x="148.897939" y="523.33939" style="fill: #a9a9a9; fill-opacity: 0.8; stroke: #a9a9a9; stroke-opacity: 0.8"/>
     <use xlink:href="#m0f4980b8a6" x="234.527853" y="365.396869" style="fill: #a9a9a9; fill-opacity: 0.8; stroke: #a9a9a9; stroke-opacity: 0.8"/>
     <use xlink:href="#m0f4980b8a6" x="148.897939" y="260.057388" style="fill: #a9a9a9; fill-opacity: 0.8; stroke: #a9a9a9; stroke-opacity: 0.8"/>
     <use xlink:href="#m0f4980b8a6" x="151.573876" y="310.320922" style="fill: #a9a9a9; fill-opacity: 0.8; stroke: #a9a9a9; stroke-opacity: 0.8"/>
     <use xlink:href="#m0f4980b8a6" x="175.657292" y="133.335521" style="fill: #a9a9a9; fill-opacity: 0.8; stroke: #a9a9a9; stroke-opacity: 0.8"/>
     <use xlink:href="#m0f4980b8a6" x="148.897939" y="238.673334" style="fill: #a9a9a9; fill-opacity: 0.8; stroke: #a9a9a9; stroke-opacity: 0.8"/>
     <use xlink:href="#m0f4980b8a6" x="166.755246" y="208.739993" style="fill: #a9a9a9; fill-opacity: 0.8; stroke: #a9a9a9; stroke-opacity: 0.8"/>
     <use xlink:href="#m0f4980b8a6" x="148.897939" y="321.739981" style="fill: #a9a9a9; fill-opacity: 0.8; stroke: #a9a9a9; stroke-opacity: 0.8"/>
     <use xlink:href="#m0f4980b8a6" x="523.240039" y="311.609902" style="fill: #a9a9a9; fill-opacity: 0.8; stroke: #a9a9a9; stroke-opacity: 0.8"/>
     <use xlink:href="#m0f4980b8a6" x="590.700951" y="233.550766" style="fill: #a9a9a9; fill-opacity: 0.8; stroke: #a9a9a9; stroke-opacity: 0.8"/>
     <use xlink:href="#m0f4980b8a6" x="554.986356" y="279.823966" style="fill: #a9a9a9; fill-opacity: 0.8; stroke: #a9a9a9; stroke-opacity: 0.8"/>
     <use xlink:href="#m0f4980b8a6" x="148.897939" y="197.439327" style="fill: #a9a9a9; fill-opacity: 0.8; stroke: #a9a9a9; stroke-opacity: 0.8"/>
     <use xlink:href="#m0f4980b8a6" x="148.897939" y="249.050203" style="fill: #a9a9a9; fill-opacity: 0.8; stroke: #a9a9a9; stroke-opacity: 0.8"/>
     <use xlink:href="#m0f4980b8a6" x="154.188995" y="353.007324" style="fill: #a9a9a9; fill-opacity: 0.8; stroke: #a9a9a9; stroke-opacity: 0.8"/>
     <use xlink:href="#m0f4980b8a6" x="148.897939" y="107.210756" style="fill: #a9a9a9; fill-opacity: 0.8; stroke: #a9a9a9; stroke-opacity: 0.8"/>
     <use xlink:href="#m0f4980b8a6" x="156.834518" y="423.159163" style="fill: #a9a9a9; fill-opacity: 0.8; stroke: #a9a9a9; stroke-opacity: 0.8"/>
     <use xlink:href="#m0f4980b8a6" x="148.897939" y="185.363272" style="fill: #a9a9a9; fill-opacity: 0.8; stroke: #a9a9a9; stroke-opacity: 0.8"/>
    </g>
   </g>
   <g id="PolyCollection_1">
    <path d="M 148.897939 232.168123 
L 148.897939 259.856321 
L 153.57429 258.963044 
L 158.250642 258.41396 
L 162.926993 258.231752 
L 167.603344 258.409978 
L 172.279696 258.639196 
L 176.956047 258.78609 
L 181.632398 259.013444 
L 186.30875 260.039871 
L 190.985101 261.086678 
L 195.661452 261.921043 
L 200.337803 263.005229 
L 205.014155 264.065446 
L 209.690506 264.817523 
L 214.366857 265.995497 
L 219.043209 267.208711 
L 223.71956 267.985979 
L 228.395911 269.119693 
L 233.072263 270.298403 
L 237.748614 270.841221 
L 242.424965 271.72111 
L 247.101317 272.514129 
L 251.777668 273.197646 
L 256.454019 273.997252 
L 261.130371 274.995248 
L 265.806722 275.46179 
L 270.483073 276.279604 
L 275.159424 277.178067 
L 279.835776 277.814566 
L 284.512127 278.21431 
L 289.188478 278.495171 
L 293.86483 279.024164 
L 298.541181 279.540005 
L 303.217532 280.40322 
L 307.893884 281.089349 
L 312.570235 281.37781 
L 317.246586 281.763476 
L 321.922938 282.341114 
L 326.599289 283.032845 
L 331.27564 283.40832 
L 335.951992 283.566751 
L 340.628343 284.153305 
L 345.304694 284.423487 
L 349.981045 284.569472 
L 354.657397 284.81574 
L 359.333748 285.346118 
L 364.010099 285.529833 
L 368.686451 285.615456 
L 373.362802 285.741915 
L 378.039153 285.729414 
L 382.715505 285.778259 
L 387.391856 285.872625 
L 392.068207 286.122486 
L 396.744559 285.897994 
L 401.42091 285.644676 
L 406.097261 285.452033 
L 410.773613 285.271977 
L 415.449964 284.983573 
L 420.126315 284.611242 
L 424.802667 284.136324 
L 429.479018 283.517521 
L 434.155369 283.092835 
L 438.83172 282.681236 
L 443.508072 282.05174 
L 448.184423 281.713189 
L 452.860774 281.518822 
L 457.537126 280.982401 
L 462.213477 280.417662 
L 466.889828 279.979503 
L 471.56618 279.247512 
L 476.242531 278.53094 
L 480.918882 277.839394 
L 485.595234 277.012532 
L 490.271585 276.280961 
L 494.947936 275.363658 
L 499.624288 274.72698 
L 504.300639 274.05549 
L 508.97699 273.335893 
L 513.653341 272.904389 
L 518.329693 272.592911 
L 523.006044 272.517803 
L 527.682395 272.226296 
L 532.358747 271.646597 
L 537.035098 270.862761 
L 541.711449 270.500662 
L 546.387801 270.132991 
L 551.064152 269.878996 
L 555.740503 269.452108 
L 560.416855 269.424743 
L 565.093206 268.871365 
L 569.769557 269.214065 
L 574.445909 269.379451 
L 579.12226 269.301828 
L 583.798611 269.267764 
L 588.474962 269.219393 
L 593.151314 269.812014 
L 597.827665 270.635289 
L 602.504016 270.801515 
L 607.180368 271.699776 
L 611.856719 272.636266 
L 611.856719 238.161861 
L 611.856719 238.161861 
L 607.180368 239.351214 
L 602.504016 240.258726 
L 597.827665 241.433845 
L 593.151314 242.48328 
L 588.474962 242.859341 
L 583.798611 243.149748 
L 579.12226 243.722594 
L 574.445909 243.587875 
L 569.769557 243.514317 
L 565.093206 243.339702 
L 560.416855 243.469741 
L 555.740503 243.332302 
L 551.064152 243.337174 
L 546.387801 242.92991 
L 541.711449 242.840117 
L 537.035098 242.451526 
L 532.358747 242.528729 
L 527.682395 241.670142 
L 523.006044 241.002062 
L 518.329693 240.164167 
L 513.653341 239.677599 
L 508.97699 239.382942 
L 504.300639 238.901491 
L 499.624288 238.428708 
L 494.947936 237.44962 
L 490.271585 236.874252 
L 485.595234 236.291826 
L 480.918882 235.697249 
L 476.242531 235.464194 
L 471.56618 234.979291 
L 466.889828 234.228827 
L 462.213477 233.326069 
L 457.537126 232.677113 
L 452.860774 232.21615 
L 448.184423 231.547392 
L 443.508072 230.893846 
L 438.83172 230.258074 
L 434.155369 230.042961 
L 429.479018 229.750521 
L 424.802667 228.829363 
L 420.126315 228.518881 
L 415.449964 227.984418 
L 410.773613 227.707352 
L 406.097261 227.640785 
L 401.42091 227.555757 
L 396.744559 227.376395 
L 392.068207 226.653272 
L 387.391856 226.628308 
L 382.715505 226.401525 
L 378.039153 226.47061 
L 373.362802 226.386589 
L 368.686451 226.131861 
L 364.010099 226.046595 
L 359.333748 225.873658 
L 354.657397 225.663883 
L 349.981045 225.491713 
L 345.304694 225.279484 
L 340.628343 224.965426 
L 335.951992 225.15996 
L 331.27564 225.305832 
L 326.599289 225.314992 
L 321.922938 225.358405 
L 317.246586 225.684092 
L 312.570235 225.722128 
L 307.893884 225.758225 
L 303.217532 225.523669 
L 298.541181 225.889325 
L 293.86483 225.802515 
L 289.188478 226.052181 
L 284.512127 226.345728 
L 279.835776 226.447759 
L 275.159424 226.502594 
L 270.483073 227.212345 
L 265.806722 227.241717 
L 261.130371 227.721931 
L 256.454019 228.119816 
L 251.777668 228.799528 
L 247.101317 229.395774 
L 242.424965 230.05414 
L 237.748614 230.595608 
L 233.072263 231.009157 
L 228.395911 231.764065 
L 223.71956 232.787718 
L 219.043209 233.13227 
L 214.366857 232.912782 
L 209.690506 233.16779 
L 205.014155 233.496382 
L 200.337803 233.692 
L 195.661452 234.11413 
L 190.985101 234.236196 
L 186.30875 234.440378 
L 181.632398 234.625643 
L 176.956047 234.738888 
L 172.279696 234.778166 
L 167.603344 234.72116 
L 162.926993 234.318303 
L 158.250642 234.233491 
L 153.57429 233.468273 
L 148.897939 232.168123 
z
" clip-path="url(#pd74ed0d1a5)" style="fill: #a9a9a9; fill-opacity: 0.15"/>
   </g>
   <g id="matplotlib.axis_1">
    <g id="xtick_1">
     <g id="line2d_1">
      <defs>
       <path id="mdf8bc86b96" d="M 0 0 
L 0 3.5 
" style="stroke: #000000; stroke-width: 0.8"/>
      </defs>
      <g>
       <use xlink:href="#mdf8bc86b96" x="148.897939" y="546.487329" style="stroke: #000000; stroke-width: 0.8"/>
      </g>
     </g>
     <g id="text_1">
      <!-- 0 -->
      <g transform="translate(140.944814 572.483423) scale(0.25 -0.25)">
       <defs>
        <path id="DejaVuSans-30" d="M 2034 4250 
Q 1547 4250 1301 3770 
Q 1056 3291 1056 2328 
Q 1056 1369 1301 889 
Q 1547 409 2034 409 
Q 2525 409 2770 889 
Q 3016 1369 3016 2328 
Q 3016 3291 2770 3770 
Q 2525 4250 2034 4250 
z
M 2034 4750 
Q 2819 4750 3233 4129 
Q 3647 3509 3647 2328 
Q 3647 1150 3233 529 
Q 2819 -91 2034 -91 
Q 1250 -91 836 529 
Q 422 1150 422 2328 
Q 422 3509 836 4129 
Q 1250 4750 2034 4750 
z
" transform="scale(0.015625)"/>
       </defs>
       <use xlink:href="#DejaVuSans-30"/>
      </g>
     </g>
    </g>
    <g id="xtick_2">
     <g id="line2d_2">
      <g>
       <use xlink:href="#mdf8bc86b96" x="242.020494" y="546.487329" style="stroke: #000000; stroke-width: 0.8"/>
      </g>
     </g>
     <g id="text_2">
      <!-- 20 -->
      <g transform="translate(226.114244 572.483423) scale(0.25 -0.25)">
       <defs>
        <path id="DejaVuSans-32" d="M 1228 531 
L 3431 531 
L 3431 0 
L 469 0 
L 469 531 
Q 828 903 1448 1529 
Q 2069 2156 2228 2338 
Q 2531 2678 2651 2914 
Q 2772 3150 2772 3378 
Q 2772 3750 2511 3984 
Q 2250 4219 1831 4219 
Q 1534 4219 1204 4116 
Q 875 4013 500 3803 
L 500 4441 
Q 881 4594 1212 4672 
Q 1544 4750 1819 4750 
Q 2544 4750 2975 4387 
Q 3406 4025 3406 3419 
Q 3406 3131 3298 2873 
Q 3191 2616 2906 2266 
Q 2828 2175 2409 1742 
Q 1991 1309 1228 531 
z
" transform="scale(0.015625)"/>
       </defs>
       <use xlink:href="#DejaVuSans-32"/>
       <use xlink:href="#DejaVuSans-30" x="63.623047"/>
      </g>
     </g>
    </g>
    <g id="xtick_3">
     <g id="line2d_3">
      <g>
       <use xlink:href="#mdf8bc86b96" x="335.143048" y="546.487329" style="stroke: #000000; stroke-width: 0.8"/>
      </g>
     </g>
     <g id="text_3">
      <!-- 40 -->
      <g transform="translate(319.236798 572.483423) scale(0.25 -0.25)">
       <defs>
        <path id="DejaVuSans-34" d="M 2419 4116 
L 825 1625 
L 2419 1625 
L 2419 4116 
z
M 2253 4666 
L 3047 4666 
L 3047 1625 
L 3713 1625 
L 3713 1100 
L 3047 1100 
L 3047 0 
L 2419 0 
L 2419 1100 
L 313 1100 
L 313 1709 
L 2253 4666 
z
" transform="scale(0.015625)"/>
       </defs>
       <use xlink:href="#DejaVuSans-34"/>
       <use xlink:href="#DejaVuSans-30" x="63.623047"/>
      </g>
     </g>
    </g>
    <g id="xtick_4">
     <g id="line2d_4">
      <g>
       <use xlink:href="#mdf8bc86b96" x="428.265603" y="546.487329" style="stroke: #000000; stroke-width: 0.8"/>
      </g>
     </g>
     <g id="text_4">
      <!-- 60 -->
      <g transform="translate(412.359353 572.483423) scale(0.25 -0.25)">
       <defs>
        <path id="DejaVuSans-36" d="M 2113 2584 
Q 1688 2584 1439 2293 
Q 1191 2003 1191 1497 
Q 1191 994 1439 701 
Q 1688 409 2113 409 
Q 2538 409 2786 701 
Q 3034 994 3034 1497 
Q 3034 2003 2786 2293 
Q 2538 2584 2113 2584 
z
M 3366 4563 
L 3366 3988 
Q 3128 4100 2886 4159 
Q 2644 4219 2406 4219 
Q 1781 4219 1451 3797 
Q 1122 3375 1075 2522 
Q 1259 2794 1537 2939 
Q 1816 3084 2150 3084 
Q 2853 3084 3261 2657 
Q 3669 2231 3669 1497 
Q 3669 778 3244 343 
Q 2819 -91 2113 -91 
Q 1303 -91 875 529 
Q 447 1150 447 2328 
Q 447 3434 972 4092 
Q 1497 4750 2381 4750 
Q 2619 4750 2861 4703 
Q 3103 4656 3366 4563 
z
" transform="scale(0.015625)"/>
       </defs>
       <use xlink:href="#DejaVuSans-36"/>
       <use xlink:href="#DejaVuSans-30" x="63.623047"/>
      </g>
     </g>
    </g>
    <g id="xtick_5">
     <g id="line2d_5">
      <g>
       <use xlink:href="#mdf8bc86b96" x="521.388157" y="546.487329" style="stroke: #000000; stroke-width: 0.8"/>
      </g>
     </g>
     <g id="text_5">
      <!-- 80 -->
      <g transform="translate(505.481907 572.483423) scale(0.25 -0.25)">
       <defs>
        <path id="DejaVuSans-38" d="M 2034 2216 
Q 1584 2216 1326 1975 
Q 1069 1734 1069 1313 
Q 1069 891 1326 650 
Q 1584 409 2034 409 
Q 2484 409 2743 651 
Q 3003 894 3003 1313 
Q 3003 1734 2745 1975 
Q 2488 2216 2034 2216 
z
M 1403 2484 
Q 997 2584 770 2862 
Q 544 3141 544 3541 
Q 544 4100 942 4425 
Q 1341 4750 2034 4750 
Q 2731 4750 3128 4425 
Q 3525 4100 3525 3541 
Q 3525 3141 3298 2862 
Q 3072 2584 2669 2484 
Q 3125 2378 3379 2068 
Q 3634 1759 3634 1313 
Q 3634 634 3220 271 
Q 2806 -91 2034 -91 
Q 1263 -91 848 271 
Q 434 634 434 1313 
Q 434 1759 690 2068 
Q 947 2378 1403 2484 
z
M 1172 3481 
Q 1172 3119 1398 2916 
Q 1625 2713 2034 2713 
Q 2441 2713 2670 2916 
Q 2900 3119 2900 3481 
Q 2900 3844 2670 4047 
Q 2441 4250 2034 4250 
Q 1625 4250 1398 4047 
Q 1172 3844 1172 3481 
z
" transform="scale(0.015625)"/>
       </defs>
       <use xlink:href="#DejaVuSans-38"/>
       <use xlink:href="#DejaVuSans-30" x="63.623047"/>
      </g>
     </g>
    </g>
    <g id="xtick_6">
     <g id="line2d_6">
      <g>
       <use xlink:href="#mdf8bc86b96" x="614.510712" y="546.487329" style="stroke: #000000; stroke-width: 0.8"/>
      </g>
     </g>
     <g id="text_6">
      <!-- 100 -->
      <g transform="translate(590.651337 572.483423) scale(0.25 -0.25)">
       <defs>
        <path id="DejaVuSans-31" d="M 794 531 
L 1825 531 
L 1825 4091 
L 703 3866 
L 703 4441 
L 1819 4666 
L 2450 4666 
L 2450 531 
L 3481 531 
L 3481 0 
L 794 0 
L 794 531 
z
" transform="scale(0.015625)"/>
       </defs>
       <use xlink:href="#DejaVuSans-31"/>
       <use xlink:href="#DejaVuSans-30" x="63.623047"/>
       <use xlink:href="#DejaVuSans-30" x="127.246094"/>
      </g>
     </g>
    </g>
    <g id="text_7">
     <!-- Relative Activity (%) -->
     <g transform="translate(228.296079 604.477954) scale(0.3 -0.3)">
      <defs>
       <path id="DejaVuSans-52" d="M 2841 2188 
Q 3044 2119 3236 1894 
Q 3428 1669 3622 1275 
L 4263 0 
L 3584 0 
L 2988 1197 
Q 2756 1666 2539 1819 
Q 2322 1972 1947 1972 
L 1259 1972 
L 1259 0 
L 628 0 
L 628 4666 
L 2053 4666 
Q 2853 4666 3247 4331 
Q 3641 3997 3641 3322 
Q 3641 2881 3436 2590 
Q 3231 2300 2841 2188 
z
M 1259 4147 
L 1259 2491 
L 2053 2491 
Q 2509 2491 2742 2702 
Q 2975 2913 2975 3322 
Q 2975 3731 2742 3939 
Q 2509 4147 2053 4147 
L 1259 4147 
z
" transform="scale(0.015625)"/>
       <path id="DejaVuSans-65" d="M 3597 1894 
L 3597 1613 
L 953 1613 
Q 991 1019 1311 708 
Q 1631 397 2203 397 
Q 2534 397 2845 478 
Q 3156 559 3463 722 
L 3463 178 
Q 3153 47 2828 -22 
Q 2503 -91 2169 -91 
Q 1331 -91 842 396 
Q 353 884 353 1716 
Q 353 2575 817 3079 
Q 1281 3584 2069 3584 
Q 2775 3584 3186 3129 
Q 3597 2675 3597 1894 
z
M 3022 2063 
Q 3016 2534 2758 2815 
Q 2500 3097 2075 3097 
Q 1594 3097 1305 2825 
Q 1016 2553 972 2059 
L 3022 2063 
z
" transform="scale(0.015625)"/>
       <path id="DejaVuSans-6c" d="M 603 4863 
L 1178 4863 
L 1178 0 
L 603 0 
L 603 4863 
z
" transform="scale(0.015625)"/>
       <path id="DejaVuSans-61" d="M 2194 1759 
Q 1497 1759 1228 1600 
Q 959 1441 959 1056 
Q 959 750 1161 570 
Q 1363 391 1709 391 
Q 2188 391 2477 730 
Q 2766 1069 2766 1631 
L 2766 1759 
L 2194 1759 
z
M 3341 1997 
L 3341 0 
L 2766 0 
L 2766 531 
Q 2569 213 2275 61 
Q 1981 -91 1556 -91 
Q 1019 -91 701 211 
Q 384 513 384 1019 
Q 384 1609 779 1909 
Q 1175 2209 1959 2209 
L 2766 2209 
L 2766 2266 
Q 2766 2663 2505 2880 
Q 2244 3097 1772 3097 
Q 1472 3097 1187 3025 
Q 903 2953 641 2809 
L 641 3341 
Q 956 3463 1253 3523 
Q 1550 3584 1831 3584 
Q 2591 3584 2966 3190 
Q 3341 2797 3341 1997 
z
" transform="scale(0.015625)"/>
       <path id="DejaVuSans-74" d="M 1172 4494 
L 1172 3500 
L 2356 3500 
L 2356 3053 
L 1172 3053 
L 1172 1153 
Q 1172 725 1289 603 
Q 1406 481 1766 481 
L 2356 481 
L 2356 0 
L 1766 0 
Q 1100 0 847 248 
Q 594 497 594 1153 
L 594 3053 
L 172 3053 
L 172 3500 
L 594 3500 
L 594 4494 
L 1172 4494 
z
" transform="scale(0.015625)"/>
       <path id="DejaVuSans-69" d="M 603 3500 
L 1178 3500 
L 1178 0 
L 603 0 
L 603 3500 
z
M 603 4863 
L 1178 4863 
L 1178 4134 
L 603 4134 
L 603 4863 
z
" transform="scale(0.015625)"/>
       <path id="DejaVuSans-76" d="M 191 3500 
L 800 3500 
L 1894 563 
L 2988 3500 
L 3597 3500 
L 2284 0 
L 1503 0 
L 191 3500 
z
" transform="scale(0.015625)"/>
       <path id="DejaVuSans-20" transform="scale(0.015625)"/>
       <path id="DejaVuSans-41" d="M 2188 4044 
L 1331 1722 
L 3047 1722 
L 2188 4044 
z
M 1831 4666 
L 2547 4666 
L 4325 0 
L 3669 0 
L 3244 1197 
L 1141 1197 
L 716 0 
L 50 0 
L 1831 4666 
z
" transform="scale(0.015625)"/>
       <path id="DejaVuSans-63" d="M 3122 3366 
L 3122 2828 
Q 2878 2963 2633 3030 
Q 2388 3097 2138 3097 
Q 1578 3097 1268 2742 
Q 959 2388 959 1747 
Q 959 1106 1268 751 
Q 1578 397 2138 397 
Q 2388 397 2633 464 
Q 2878 531 3122 666 
L 3122 134 
Q 2881 22 2623 -34 
Q 2366 -91 2075 -91 
Q 1284 -91 818 406 
Q 353 903 353 1747 
Q 353 2603 823 3093 
Q 1294 3584 2113 3584 
Q 2378 3584 2631 3529 
Q 2884 3475 3122 3366 
z
" transform="scale(0.015625)"/>
       <path id="DejaVuSans-79" d="M 2059 -325 
Q 1816 -950 1584 -1140 
Q 1353 -1331 966 -1331 
L 506 -1331 
L 506 -850 
L 844 -850 
Q 1081 -850 1212 -737 
Q 1344 -625 1503 -206 
L 1606 56 
L 191 3500 
L 800 3500 
L 1894 763 
L 2988 3500 
L 3597 3500 
L 2059 -325 
z
" transform="scale(0.015625)"/>
       <path id="DejaVuSans-28" d="M 1984 4856 
Q 1566 4138 1362 3434 
Q 1159 2731 1159 2009 
Q 1159 1288 1364 580 
Q 1569 -128 1984 -844 
L 1484 -844 
Q 1016 -109 783 600 
Q 550 1309 550 2009 
Q 550 2706 781 3412 
Q 1013 4119 1484 4856 
L 1984 4856 
z
" transform="scale(0.015625)"/>
       <path id="DejaVuSans-25" d="M 4653 2053 
Q 4381 2053 4226 1822 
Q 4072 1591 4072 1178 
Q 4072 772 4226 539 
Q 4381 306 4653 306 
Q 4919 306 5073 539 
Q 5228 772 5228 1178 
Q 5228 1588 5073 1820 
Q 4919 2053 4653 2053 
z
M 4653 2450 
Q 5147 2450 5437 2106 
Q 5728 1763 5728 1178 
Q 5728 594 5436 251 
Q 5144 -91 4653 -91 
Q 4153 -91 3862 251 
Q 3572 594 3572 1178 
Q 3572 1766 3864 2108 
Q 4156 2450 4653 2450 
z
M 1428 4353 
Q 1159 4353 1004 4120 
Q 850 3888 850 3481 
Q 850 3069 1003 2837 
Q 1156 2606 1428 2606 
Q 1700 2606 1854 2837 
Q 2009 3069 2009 3481 
Q 2009 3884 1853 4118 
Q 1697 4353 1428 4353 
z
M 4250 4750 
L 4750 4750 
L 1831 -91 
L 1331 -91 
L 4250 4750 
z
M 1428 4750 
Q 1922 4750 2215 4408 
Q 2509 4066 2509 3481 
Q 2509 2891 2217 2550 
Q 1925 2209 1428 2209 
Q 931 2209 642 2551 
Q 353 2894 353 3481 
Q 353 4063 643 4406 
Q 934 4750 1428 4750 
z
" transform="scale(0.015625)"/>
       <path id="DejaVuSans-29" d="M 513 4856 
L 1013 4856 
Q 1481 4119 1714 3412 
Q 1947 2706 1947 2009 
Q 1947 1309 1714 600 
Q 1481 -109 1013 -844 
L 513 -844 
Q 928 -128 1133 580 
Q 1338 1288 1338 2009 
Q 1338 2731 1133 3434 
Q 928 4138 513 4856 
z
" transform="scale(0.015625)"/>
      </defs>
      <use xlink:href="#DejaVuSans-52"/>
      <use xlink:href="#DejaVuSans-65" x="64.982422"/>
      <use xlink:href="#DejaVuSans-6c" x="126.505859"/>
      <use xlink:href="#DejaVuSans-61" x="154.289062"/>
      <use xlink:href="#DejaVuSans-74" x="215.568359"/>
      <use xlink:href="#DejaVuSans-69" x="254.777344"/>
      <use xlink:href="#DejaVuSans-76" x="282.560547"/>
      <use xlink:href="#DejaVuSans-65" x="341.740234"/>
      <use xlink:href="#DejaVuSans-20" x="403.263672"/>
      <use xlink:href="#DejaVuSans-41" x="435.050781"/>
      <use xlink:href="#DejaVuSans-63" x="501.708984"/>
      <use xlink:href="#DejaVuSans-74" x="556.689453"/>
      <use xlink:href="#DejaVuSans-69" x="595.898438"/>
      <use xlink:href="#DejaVuSans-76" x="623.681641"/>
      <use xlink:href="#DejaVuSans-69" x="682.861328"/>
      <use xlink:href="#DejaVuSans-74" x="710.644531"/>
      <use xlink:href="#DejaVuSans-79" x="749.853516"/>
      <use xlink:href="#DejaVuSans-20" x="809.033203"/>
      <use xlink:href="#DejaVuSans-28" x="840.820312"/>
      <use xlink:href="#DejaVuSans-25" x="879.833984"/>
      <use xlink:href="#DejaVuSans-29" x="974.853516"/>
     </g>
    </g>
   </g>
   <g id="matplotlib.axis_2">
    <g id="ytick_1">
     <g id="line2d_7">
      <defs>
       <path id="md08ef0cade" d="M 0 0 
L -3.5 0 
" style="stroke: #000000; stroke-width: 0.8"/>
      </defs>
      <g>
       <use xlink:href="#md08ef0cade" x="125.75" y="501.444212" style="stroke: #000000; stroke-width: 0.8"/>
      </g>
     </g>
     <g id="text_8">
      <!-- −5.62 -->
      <g transform="translate(42.136719 510.942259) scale(0.25 -0.25)">
       <defs>
        <path id="DejaVuSans-2212" d="M 678 2272 
L 4684 2272 
L 4684 1741 
L 678 1741 
L 678 2272 
z
" transform="scale(0.015625)"/>
        <path id="DejaVuSans-35" d="M 691 4666 
L 3169 4666 
L 3169 4134 
L 1269 4134 
L 1269 2991 
Q 1406 3038 1543 3061 
Q 1681 3084 1819 3084 
Q 2600 3084 3056 2656 
Q 3513 2228 3513 1497 
Q 3513 744 3044 326 
Q 2575 -91 1722 -91 
Q 1428 -91 1123 -41 
Q 819 9 494 109 
L 494 744 
Q 775 591 1075 516 
Q 1375 441 1709 441 
Q 2250 441 2565 725 
Q 2881 1009 2881 1497 
Q 2881 1984 2565 2268 
Q 2250 2553 1709 2553 
Q 1456 2553 1204 2497 
Q 953 2441 691 2322 
L 691 4666 
z
" transform="scale(0.015625)"/>
        <path id="DejaVuSans-2e" d="M 684 794 
L 1344 794 
L 1344 0 
L 684 0 
L 684 794 
z
" transform="scale(0.015625)"/>
       </defs>
       <use xlink:href="#DejaVuSans-2212"/>
       <use xlink:href="#DejaVuSans-35" x="83.789062"/>
       <use xlink:href="#DejaVuSans-2e" x="147.412109"/>
       <use xlink:href="#DejaVuSans-36" x="179.199219"/>
       <use xlink:href="#DejaVuSans-32" x="242.822266"/>
      </g>
     </g>
    </g>
    <g id="ytick_2">
     <g id="line2d_8">
      <g>
       <use xlink:href="#md08ef0cade" x="125.75" y="431.50408" style="stroke: #000000; stroke-width: 0.8"/>
      </g>
     </g>
     <g id="text_9">
      <!-- −5.61 -->
      <g transform="translate(42.136719 441.002127) scale(0.25 -0.25)">
       <use xlink:href="#DejaVuSans-2212"/>
       <use xlink:href="#DejaVuSans-35" x="83.789062"/>
       <use xlink:href="#DejaVuSans-2e" x="147.412109"/>
       <use xlink:href="#DejaVuSans-36" x="179.199219"/>
       <use xlink:href="#DejaVuSans-31" x="242.822266"/>
      </g>
     </g>
    </g>
    <g id="ytick_3">
     <g id="line2d_9">
      <g>
       <use xlink:href="#md08ef0cade" x="125.75" y="361.563947" style="stroke: #000000; stroke-width: 0.8"/>
      </g>
     </g>
     <g id="text_10">
      <!-- −5.60 -->
      <g transform="translate(42.136719 371.061994) scale(0.25 -0.25)">
       <use xlink:href="#DejaVuSans-2212"/>
       <use xlink:href="#DejaVuSans-35" x="83.789062"/>
       <use xlink:href="#DejaVuSans-2e" x="147.412109"/>
       <use xlink:href="#DejaVuSans-36" x="179.199219"/>
       <use xlink:href="#DejaVuSans-30" x="242.822266"/>
      </g>
     </g>
    </g>
    <g id="ytick_4">
     <g id="line2d_10">
      <g>
       <use xlink:href="#md08ef0cade" x="125.75" y="291.623815" style="stroke: #000000; stroke-width: 0.8"/>
      </g>
     </g>
     <g id="text_11">
      <!-- −5.59 -->
      <g transform="translate(42.136719 301.121862) scale(0.25 -0.25)">
       <defs>
        <path id="DejaVuSans-39" d="M 703 97 
L 703 672 
Q 941 559 1184 500 
Q 1428 441 1663 441 
Q 2288 441 2617 861 
Q 2947 1281 2994 2138 
Q 2813 1869 2534 1725 
Q 2256 1581 1919 1581 
Q 1219 1581 811 2004 
Q 403 2428 403 3163 
Q 403 3881 828 4315 
Q 1253 4750 1959 4750 
Q 2769 4750 3195 4129 
Q 3622 3509 3622 2328 
Q 3622 1225 3098 567 
Q 2575 -91 1691 -91 
Q 1453 -91 1209 -44 
Q 966 3 703 97 
z
M 1959 2075 
Q 2384 2075 2632 2365 
Q 2881 2656 2881 3163 
Q 2881 3666 2632 3958 
Q 2384 4250 1959 4250 
Q 1534 4250 1286 3958 
Q 1038 3666 1038 3163 
Q 1038 2656 1286 2365 
Q 1534 2075 1959 2075 
z
" transform="scale(0.015625)"/>
       </defs>
       <use xlink:href="#DejaVuSans-2212"/>
       <use xlink:href="#DejaVuSans-35" x="83.789062"/>
       <use xlink:href="#DejaVuSans-2e" x="147.412109"/>
       <use xlink:href="#DejaVuSans-35" x="179.199219"/>
       <use xlink:href="#DejaVuSans-39" x="242.822266"/>
      </g>
     </g>
    </g>
    <g id="ytick_5">
     <g id="line2d_11">
      <g>
       <use xlink:href="#md08ef0cade" x="125.75" y="221.683682" style="stroke: #000000; stroke-width: 0.8"/>
      </g>
     </g>
     <g id="text_12">
      <!-- −5.58 -->
      <g transform="translate(42.136719 231.181729) scale(0.25 -0.25)">
       <use xlink:href="#DejaVuSans-2212"/>
       <use xlink:href="#DejaVuSans-35" x="83.789062"/>
       <use xlink:href="#DejaVuSans-2e" x="147.412109"/>
       <use xlink:href="#DejaVuSans-35" x="179.199219"/>
       <use xlink:href="#DejaVuSans-38" x="242.822266"/>
      </g>
     </g>
    </g>
    <g id="ytick_6">
     <g id="line2d_12">
      <g>
       <use xlink:href="#md08ef0cade" x="125.75" y="151.74355" style="stroke: #000000; stroke-width: 0.8"/>
      </g>
     </g>
     <g id="text_13">
      <!-- −5.57 -->
      <g transform="translate(42.136719 161.241597) scale(0.25 -0.25)">
       <defs>
        <path id="DejaVuSans-37" d="M 525 4666 
L 3525 4666 
L 3525 4397 
L 1831 0 
L 1172 0 
L 2766 4134 
L 525 4134 
L 525 4666 
z
" transform="scale(0.015625)"/>
       </defs>
       <use xlink:href="#DejaVuSans-2212"/>
       <use xlink:href="#DejaVuSans-35" x="83.789062"/>
       <use xlink:href="#DejaVuSans-2e" x="147.412109"/>
       <use xlink:href="#DejaVuSans-35" x="179.199219"/>
       <use xlink:href="#DejaVuSans-37" x="242.822266"/>
      </g>
     </g>
    </g>
    <g id="ytick_7">
     <g id="line2d_13">
      <g>
       <use xlink:href="#md08ef0cade" x="125.75" y="81.803417" style="stroke: #000000; stroke-width: 0.8"/>
      </g>
     </g>
     <g id="text_14">
      <!-- −5.56 -->
      <g transform="translate(42.136719 91.301464) scale(0.25 -0.25)">
       <use xlink:href="#DejaVuSans-2212"/>
       <use xlink:href="#DejaVuSans-35" x="83.789062"/>
       <use xlink:href="#DejaVuSans-2e" x="147.412109"/>
       <use xlink:href="#DejaVuSans-35" x="179.199219"/>
       <use xlink:href="#DejaVuSans-36" x="242.822266"/>
      </g>
     </g>
    </g>
    <g id="text_15">
     <!-- RITA Score -->
     <g transform="translate(31.897656 371.742031) rotate(-90) scale(0.3 -0.3)">
      <defs>
       <path id="DejaVuSans-49" d="M 628 4666 
L 1259 4666 
L 1259 0 
L 628 0 
L 628 4666 
z
" transform="scale(0.015625)"/>
       <path id="DejaVuSans-54" d="M -19 4666 
L 3928 4666 
L 3928 4134 
L 2272 4134 
L 2272 0 
L 1638 0 
L 1638 4134 
L -19 4134 
L -19 4666 
z
" transform="scale(0.015625)"/>
       <path id="DejaVuSans-53" d="M 3425 4513 
L 3425 3897 
Q 3066 4069 2747 4153 
Q 2428 4238 2131 4238 
Q 1616 4238 1336 4038 
Q 1056 3838 1056 3469 
Q 1056 3159 1242 3001 
Q 1428 2844 1947 2747 
L 2328 2669 
Q 3034 2534 3370 2195 
Q 3706 1856 3706 1288 
Q 3706 609 3251 259 
Q 2797 -91 1919 -91 
Q 1588 -91 1214 -16 
Q 841 59 441 206 
L 441 856 
Q 825 641 1194 531 
Q 1563 422 1919 422 
Q 2459 422 2753 634 
Q 3047 847 3047 1241 
Q 3047 1584 2836 1778 
Q 2625 1972 2144 2069 
L 1759 2144 
Q 1053 2284 737 2584 
Q 422 2884 422 3419 
Q 422 4038 858 4394 
Q 1294 4750 2059 4750 
Q 2388 4750 2728 4690 
Q 3069 4631 3425 4513 
z
" transform="scale(0.015625)"/>
       <path id="DejaVuSans-6f" d="M 1959 3097 
Q 1497 3097 1228 2736 
Q 959 2375 959 1747 
Q 959 1119 1226 758 
Q 1494 397 1959 397 
Q 2419 397 2687 759 
Q 2956 1122 2956 1747 
Q 2956 2369 2687 2733 
Q 2419 3097 1959 3097 
z
M 1959 3584 
Q 2709 3584 3137 3096 
Q 3566 2609 3566 1747 
Q 3566 888 3137 398 
Q 2709 -91 1959 -91 
Q 1206 -91 779 398 
Q 353 888 353 1747 
Q 353 2609 779 3096 
Q 1206 3584 1959 3584 
z
" transform="scale(0.015625)"/>
       <path id="DejaVuSans-72" d="M 2631 2963 
Q 2534 3019 2420 3045 
Q 2306 3072 2169 3072 
Q 1681 3072 1420 2755 
Q 1159 2438 1159 1844 
L 1159 0 
L 581 0 
L 581 3500 
L 1159 3500 
L 1159 2956 
Q 1341 3275 1631 3429 
Q 1922 3584 2338 3584 
Q 2397 3584 2469 3576 
Q 2541 3569 2628 3553 
L 2631 2963 
z
" transform="scale(0.015625)"/>
      </defs>
      <use xlink:href="#DejaVuSans-52"/>
      <use xlink:href="#DejaVuSans-49" x="69.482422"/>
      <use xlink:href="#DejaVuSans-54" x="98.974609"/>
      <use xlink:href="#DejaVuSans-41" x="152.308594"/>
      <use xlink:href="#DejaVuSans-20" x="220.716797"/>
      <use xlink:href="#DejaVuSans-53" x="252.503906"/>
      <use xlink:href="#DejaVuSans-63" x="315.980469"/>
      <use xlink:href="#DejaVuSans-6f" x="370.960938"/>
      <use xlink:href="#DejaVuSans-72" x="432.142578"/>
      <use xlink:href="#DejaVuSans-65" x="471.005859"/>
     </g>
    </g>
   </g>
   <g id="line2d_14">
    <path d="M 148.897939 246.462787 
L 153.57429 246.67978 
L 158.250642 246.894064 
L 162.926993 247.10564 
L 167.603344 247.314507 
L 172.279696 247.520665 
L 176.956047 247.724114 
L 181.632398 247.924855 
L 186.30875 248.122887 
L 190.985101 248.31821 
L 195.661452 248.510824 
L 200.337803 248.70073 
L 205.014155 248.887927 
L 209.690506 249.072415 
L 214.366857 249.254194 
L 219.043209 249.433265 
L 223.71956 249.609627 
L 228.395911 249.78328 
L 233.072263 249.954224 
L 237.748614 250.122459 
L 242.424965 250.287986 
L 247.101317 250.450804 
L 251.777668 250.610914 
L 256.454019 250.768314 
L 261.130371 250.923006 
L 265.806722 251.074989 
L 270.483073 251.224263 
L 275.159424 251.370829 
L 279.835776 251.514685 
L 284.512127 251.655833 
L 289.188478 251.794272 
L 293.86483 251.930003 
L 298.541181 252.063025 
L 303.217532 252.193338 
L 307.893884 252.320942 
L 312.570235 252.445837 
L 317.246586 252.568024 
L 321.922938 252.687502 
L 326.599289 252.804271 
L 331.27564 252.918331 
L 335.951992 253.029683 
L 340.628343 253.138326 
L 345.304694 253.24426 
L 349.981045 253.347485 
L 354.657397 253.448002 
L 359.333748 253.54581 
L 364.010099 253.640909 
L 368.686451 253.733299 
L 373.362802 253.822981 
L 378.039153 253.909954 
L 382.715505 253.994218 
L 387.391856 254.075773 
L 392.068207 254.15462 
L 396.744559 254.230757 
L 401.42091 254.304186 
L 406.097261 254.374907 
L 410.773613 254.442918 
L 415.449964 254.508221 
L 420.126315 254.570815 
L 424.802667 254.6307 
L 429.479018 254.687877 
L 434.155369 254.742345 
L 438.83172 254.794103 
L 443.508072 254.843154 
L 448.184423 254.889495 
L 452.860774 254.933128 
L 457.537126 254.974052 
L 462.213477 255.012267 
L 466.889828 255.047774 
L 471.56618 255.080571 
L 476.242531 255.11066 
L 480.918882 255.13804 
L 485.595234 255.162712 
L 490.271585 255.184674 
L 494.947936 255.203928 
L 499.624288 255.220473 
L 504.300639 255.23431 
L 508.97699 255.245437 
L 513.653341 255.253856 
L 518.329693 255.259566 
L 523.006044 255.262568 
L 527.682395 255.26286 
L 532.358747 255.260444 
L 537.035098 255.255319 
L 541.711449 255.247486 
L 546.387801 255.236943 
L 551.064152 255.223692 
L 555.740503 255.207732 
L 560.416855 255.189063 
L 565.093206 255.167686 
L 569.769557 255.1436 
L 574.445909 255.116805 
L 579.12226 255.087301 
L 583.798611 255.055089 
L 588.474962 255.020167 
L 593.151314 254.982537 
L 597.827665 254.942199 
L 602.504016 254.899151 
L 607.180368 254.853395 
L 611.856719 254.80493 
" clip-path="url(#pd74ed0d1a5)" style="fill: none; stroke: #a9a9a9; stroke-width: 2.25; stroke-linecap: square"/>
   </g>
   <g id="patch_3">
    <path d="M 125.75 546.487329 
L 125.75 37.232671 
" style="fill: none; stroke: #000000; stroke-width: 0.8; stroke-linejoin: miter; stroke-linecap: square"/>
   </g>
   <g id="patch_4">
    <path d="M 635.004658 546.487329 
L 635.004658 37.232671 
" style="fill: none; stroke: #000000; stroke-width: 0.8; stroke-linejoin: miter; stroke-linecap: square"/>
   </g>
   <g id="patch_5">
    <path d="M 125.75 546.487329 
L 635.004658 546.487329 
" style="fill: none; stroke: #000000; stroke-width: 0.8; stroke-linejoin: miter; stroke-linecap: square"/>
   </g>
   <g id="patch_6">
    <path d="M 125.75 37.232671 
L 635.004658 37.232671 
" style="fill: none; stroke: #000000; stroke-width: 0.8; stroke-linejoin: miter; stroke-linecap: square"/>
   </g>
   <g id="legend_1">
    <g id="patch_7">
     <path d="M 323.604658 149.301421 
L 614.004658 149.301421 
Q 620.004658 149.301421 620.004658 143.301421 
L 620.004658 58.232671 
Q 620.004658 52.232671 614.004658 52.232671 
L 323.604658 52.232671 
Q 317.604658 52.232671 317.604658 58.232671 
L 317.604658 143.301421 
Q 317.604658 149.301421 323.604658 149.301421 
z
" style="fill: #ffffff; opacity: 0.7; stroke: #cccccc; stroke-linejoin: miter"/>
    </g>
    <g id="patch_8">
     <path d="M 329.604658 87.027983 
L 329.604658 87.027983 
L 329.604658 66.027983 
L 329.604658 66.027983 
L 329.604658 87.027983 
z
" style="fill: none; opacity: 0"/>
    </g>
    <g id="text_16">
     <!-- Met1 = 0.02$\pm$0.14 -->
     <g transform="translate(329.604658 87.027983) scale(0.3 -0.3)">
      <defs>
       <path id="DejaVuSans-4d" d="M 628 4666 
L 1569 4666 
L 2759 1491 
L 3956 4666 
L 4897 4666 
L 4897 0 
L 4281 0 
L 4281 4097 
L 3078 897 
L 2444 897 
L 1241 4097 
L 1241 0 
L 628 0 
L 628 4666 
z
" transform="scale(0.015625)"/>
       <path id="DejaVuSans-3d" d="M 678 2906 
L 4684 2906 
L 4684 2381 
L 678 2381 
L 678 2906 
z
M 678 1631 
L 4684 1631 
L 4684 1100 
L 678 1100 
L 678 1631 
z
" transform="scale(0.015625)"/>
       <path id="DejaVuSans-b1" d="M 2944 4013 
L 2944 2803 
L 4684 2803 
L 4684 2272 
L 2944 2272 
L 2944 1063 
L 2419 1063 
L 2419 2272 
L 678 2272 
L 678 2803 
L 2419 2803 
L 2419 4013 
L 2944 4013 
z
M 678 531 
L 4684 531 
L 4684 0 
L 678 0 
L 678 531 
z
" transform="scale(0.015625)"/>
      </defs>
      <use xlink:href="#DejaVuSans-4d" transform="translate(0 0.78125)"/>
      <use xlink:href="#DejaVuSans-65" transform="translate(86.279297 0.78125)"/>
      <use xlink:href="#DejaVuSans-74" transform="translate(147.802734 0.78125)"/>
      <use xlink:href="#DejaVuSans-31" transform="translate(187.011719 0.78125)"/>
      <use xlink:href="#DejaVuSans-20" transform="translate(250.634766 0.78125)"/>
      <use xlink:href="#DejaVuSans-3d" transform="translate(282.421875 0.78125)"/>
      <use xlink:href="#DejaVuSans-20" transform="translate(366.210938 0.78125)"/>
      <use xlink:href="#DejaVuSans-30" transform="translate(397.998047 0.78125)"/>
      <use xlink:href="#DejaVuSans-2e" transform="translate(461.621094 0.78125)"/>
      <use xlink:href="#DejaVuSans-30" transform="translate(493.408203 0.78125)"/>
      <use xlink:href="#DejaVuSans-32" transform="translate(557.03125 0.78125)"/>
      <use xlink:href="#DejaVuSans-b1" transform="translate(620.654297 0.78125)"/>
      <use xlink:href="#DejaVuSans-30" transform="translate(704.443359 0.78125)"/>
      <use xlink:href="#DejaVuSans-2e" transform="translate(768.066406 0.78125)"/>
      <use xlink:href="#DejaVuSans-31" transform="translate(799.853516 0.78125)"/>
      <use xlink:href="#DejaVuSans-34" transform="translate(863.476562 0.78125)"/>
     </g>
    </g>
    <g id="patch_9">
     <path d="M 329.604658 131.062358 
L 329.604658 131.062358 
L 329.604658 110.062358 
L 329.604658 110.062358 
L 329.604658 131.062358 
z
" style="fill: none; opacity: 0"/>
    </g>
    <g id="text_17">
     <!-- Met2 = 0.19$\pm$0.05 -->
     <g transform="translate(329.604658 131.062358) scale(0.3 -0.3)">
      <use xlink:href="#DejaVuSans-4d" transform="translate(0 0.78125)"/>
      <use xlink:href="#DejaVuSans-65" transform="translate(86.279297 0.78125)"/>
      <use xlink:href="#DejaVuSans-74" transform="translate(147.802734 0.78125)"/>
      <use xlink:href="#DejaVuSans-32" transform="translate(187.011719 0.78125)"/>
      <use xlink:href="#DejaVuSans-20" transform="translate(250.634766 0.78125)"/>
      <use xlink:href="#DejaVuSans-3d" transform="translate(282.421875 0.78125)"/>
      <use xlink:href="#DejaVuSans-20" transform="translate(366.210938 0.78125)"/>
      <use xlink:href="#DejaVuSans-30" transform="translate(397.998047 0.78125)"/>
      <use xlink:href="#DejaVuSans-2e" transform="translate(461.621094 0.78125)"/>
      <use xlink:href="#DejaVuSans-31" transform="translate(493.408203 0.78125)"/>
      <use xlink:href="#DejaVuSans-39" transform="translate(557.03125 0.78125)"/>
      <use xlink:href="#DejaVuSans-b1" transform="translate(620.654297 0.78125)"/>
      <use xlink:href="#DejaVuSans-30" transform="translate(704.443359 0.78125)"/>
      <use xlink:href="#DejaVuSans-2e" transform="translate(768.066406 0.78125)"/>
      <use xlink:href="#DejaVuSans-30" transform="translate(799.853516 0.78125)"/>
      <use xlink:href="#DejaVuSans-35" transform="translate(863.476562 0.78125)"/>
     </g>
    </g>
   </g>
  </g>
 </g>
 <defs>
  <clipPath id="pd74ed0d1a5">
   <rect x="125.75" y="37.232671" width="509.254658" height="509.254658"/>
  </clipPath>
 </defs>
</svg>
